<?xml version="1.0" encoding="UTF-8"?>
<svg version="1.1" xmlns="http://www.w3.org/2000/svg" width="297" height="167">
<path d="M0 0 C2.25 0 2.25 0 5 1 C7.05695657 3.99014453 9 7.313902 9 11 C9.66 11 10.32 11 11 11 C11 11.66 11 12.32 11 13 C11.66 13 12.32 13 13 13 C13 13.99 13 14.98 13 16 C11.68 16 10.36 16 9 16 C10.59043379 21.08938811 13.7446951 24.87456643 17 29 C16 30 16 30 13.4375 30.0625 C12.633125 30.041875 11.82875 30.02125 11 30 C11 29.34 11 28.68 11 28 C10.34 28 9.68 28 9 28 C9.96585312 32.32424371 9.96585312 32.32424371 13 35.25 C13.66 35.4975 14.32 35.745 15 36 C17 38 17 38 17 41 C14.69 41 12.38 41 10 41 C13.13621963 45.49029359 13.13621963 45.49029359 17.8125 47.875 C18.534375 47.91625 19.25625 47.9575 20 48 C20 47.01 20 46.02 20 45 C18.68 45 17.36 45 16 45 C15.67 44.01 15.34 43.02 15 42 C15.99 42 16.98 42 18 42 C18 41.34 18 40.68 18 40 C18.66 40 19.32 40 20 40 C20.28875 39.13375 20.5775 38.2675 20.875 37.375 C21.91666667 34.25 22.95833333 31.125 24 28 C25.875 28.2421875 25.875 28.2421875 28 29 C29.125 30.8203125 29.125 30.8203125 30 33.125 C31.696477 37.33253225 33.67930076 41.10454056 36 45 C34.35 45 32.7 45 31 45 C31.99 47.475 31.99 47.475 33 50 C33.66 50 34.32 50 35 50 C36.6875 51.8125 36.6875 51.8125 38 54 C37.67 54.99 37.34 55.98 37 57 C35.35 56.67 33.7 56.34 32 56 C32.49371094 56.53109375 32.98742187 57.0621875 33.49609375 57.609375 C34.13675781 58.31578125 34.77742187 59.0221875 35.4375 59.75 C36.07558594 60.44609375 36.71367187 61.1421875 37.37109375 61.859375 C38.99081325 63.98792725 39.58267256 65.39023405 40 68 C37.83032311 68.95465783 36.43671207 69.14401212 34.17578125 68.3984375 C32.4315257 67.64129615 30.71372869 66.82390802 29 66 C29 70.62 29 75.24 29 80 C31.97 80.495 31.97 80.495 35 81 C38.45135231 82.44282097 41.71070362 84.22126236 45 86 C46.03125 86.556875 47.0625 87.11375 48.125 87.6875 C49.053125 88.3371875 49.053125 88.3371875 50 89 C50 89.66 50 90.32 50 91 C50.58910156 91.12632813 51.17820313 91.25265625 51.78515625 91.3828125 C54 92 54 92 57.4375 93.875 C64.46191901 97.47894632 72.44335989 98.84035466 80.25 99.5625 C81.4875 99.706875 82.725 99.85125 84 100 C84.33 100.66 84.66 101.32 85 102 C84.67 102.66 84.34 103.32 84 104 C56.45435508 104.88811653 28.93091767 105.16020203 1.37182617 105.13037109 C-4.07791549 105.12455371 -9.52760918 105.12804971 -14.97734928 105.13394356 C-19.23152534 105.13754893 -23.48568986 105.13641275 -27.73986626 105.13381577 C-29.75286299 105.13315259 -31.7658608 105.13395343 -33.77885628 105.13629532 C-36.56101438 105.13883443 -39.34309205 105.13496893 -42.12524414 105.12939453 C-43.34748688 105.13243088 -43.34748688 105.13243088 -44.59442139 105.13552856 C-48.84135389 105.11976384 -52.81641476 104.84158833 -57 104 C-55.95487178 100.69281343 -55.02259921 100.01183768 -51.8828125 98.3671875 C-50.63570556 97.85616491 -49.3827809 97.35915599 -48.125 96.875 C-42.40523909 94.75294287 -42.40523909 94.75294287 -37 92 C-35.78858208 89.1215083 -35.78858208 89.1215083 -36.375 86.5 C-38.59061907 83.09135528 -40.8065527 82.89041321 -44.60546875 81.81640625 C-48.70669941 80.41810738 -53.01681331 77.96637339 -55 74 C-55.64505105 67.76450649 -54.66456926 64.91871803 -51.1171875 59.828125 C-49.66564224 57.45286912 -49.50489065 55.72310144 -50 53 C-51.16893124 51.63245312 -51.16893124 51.63245312 -54.375 51.5 C-60.65434298 51.61113881 -65.04402088 55.51039673 -70 59 C-72.5327555 60.72170075 -75.07834426 62.42394828 -77.625 64.125 C-78.26469727 64.55466064 -78.90439453 64.98432129 -79.56347656 65.42700195 C-93.85825319 74.97221187 -93.85825319 74.97221187 -102.125 75.375 C-107.64374441 75.77526058 -112.05588871 76.54336258 -117 79 C-117.69222656 79.33902344 -118.38445312 79.67804688 -119.09765625 80.02734375 C-124.54964522 82.88314749 -129.40772516 86.40207709 -134.34375 90.0625 C-143.85483871 97 -143.85483871 97 -147 97 C-147.33 97.66 -147.66 98.32 -148 99 C-149.92578125 100.03515625 -149.92578125 100.03515625 -152.3125 101.0625 C-153.09238281 101.40410156 -153.87226563 101.74570313 -154.67578125 102.09765625 C-159.17804917 103.84559556 -162.89623011 104.1110377 -167.75 104.0625 C-168.92046875 104.05347656 -170.0909375 104.04445313 -171.296875 104.03515625 C-172.63492188 104.01775391 -172.63492188 104.01775391 -174 104 C-174.33 103.01 -174.66 102.02 -175 101 C-173.63681641 100.5978125 -173.63681641 100.5978125 -172.24609375 100.1875 C-157.73054379 95.66162596 -145.44972632 88.66598597 -133 80 C-132.01 79.34 -131.02 78.68 -130 78 C-130.16113281 77.16597656 -130.32226562 76.33195312 -130.48828125 75.47265625 C-131.0364895 71.75237279 -131.16853109 68.19713817 -131.1875 64.4375 C-131.20167969 63.15746094 -131.21585938 61.87742188 -131.23046875 60.55859375 C-131.0137158 57.21178124 -130.45213997 54.99037519 -129 52 C-128.34 52 -127.68 52 -127 52 C-126.75507812 51.24074219 -126.51015625 50.48148438 -126.2578125 49.69921875 C-123.9326163 44.70943435 -118.91897336 42.24211632 -113.98046875 40.140625 C-107.16129348 38.08515058 -100.03820531 38.79662464 -93.625 41.8125 C-90.61263477 43.48942396 -88.17531685 45.28085393 -86 48 C-86 48.66 -86 49.32 -86 50 C-85.34 50 -84.68 50 -84 50 C-83.01 52.31 -82.02 54.62 -81 57 C-80.32195312 56.56429687 -79.64390625 56.12859375 -78.9453125 55.6796875 C-76.99192543 54.42973622 -75.03320723 53.18809201 -73.0703125 51.953125 C-71.17014165 50.74436491 -69.2859687 49.50951041 -67.4296875 48.234375 C-61.42917772 44.25976081 -56.2556146 42.53807423 -49 43 C-46.14226481 43.83134115 -44.48050894 44.52456754 -42 46 C-41.01386719 46.56976563 -40.02773437 47.13953125 -39.01171875 47.7265625 C-36.88969227 48.96165815 -34.77585546 50.2109702 -32.671875 51.4765625 C-30.02845568 53.09895323 -30.02845568 53.09895323 -27 54 C-26.67 52.02 -26.34 50.04 -26 48 C-30.455 48.495 -30.455 48.495 -35 49 C-35 44.63204596 -34.77237852 44.25341007 -32 41.25 C-31.443125 40.63640625 -30.88625 40.0228125 -30.3125 39.390625 C-29.879375 38.93171875 -29.44625 38.4728125 -29 38 C-30.32 37.67 -31.64 37.34 -33 37 C-32.38073236 33.87582957 -31.32503069 31.703681 -29.5625 29.0625 C-27.66227375 26.12428889 -26.14380113 23.32742147 -25 20 C-24.01 20 -23.02 20 -22 20 C-21.65388672 20.87011719 -21.65388672 20.87011719 -21.30078125 21.7578125 C-19.65326435 25.70403876 -18.1038496 29.15527225 -15.25 32.375 C-13 35 -13 35 -13 38 C-14.65 37.67 -16.3 37.34 -18 37 C-17.690625 37.598125 -17.38125 38.19625 -17.0625 38.8125 C-16 41 -16 41 -15 44 C-14.34 44 -13.68 44 -13 44 C-13 44.66 -13 45.32 -13 46 C-12.34 46.33 -11.68 46.66 -11 47 C-14.11771927 48.60339848 -15.39011689 49.18974141 -18.8125 48.125 C-19.534375 47.75375 -20.25625 47.3825 -21 47 C-21.17744681 50.19404266 -21.00215629 52.94843411 -20 56 C-17.36333395 58.64265847 -14.26890676 60.23944636 -11 62 C-9.14234224 63.11922593 -7.2880712 64.24409538 -5.4375 65.375 C-3.2409375 66.674375 -3.2409375 66.674375 -1 68 C-0.67 62.39 -0.34 56.78 0 51 C-1.381875 51.66 -2.76375 52.32 -4.1875 53 C-7.6096985 54.5329722 -10.18945876 55.49168274 -14 55 C-14 53.68 -14 52.36 -14 51 C-11.5625 48.875 -11.5625 48.875 -9 47 C-8.67 46.34 -8.34 45.68 -8 45 C-7.34 45 -6.68 45 -6 45 C-6 44.01 -6 43.02 -6 42 C-8.97 41.505 -8.97 41.505 -12 41 C-12 40.01 -12 39.02 -12 38 C-11.34 38 -10.68 38 -10 38 C-10 37.34 -10 36.68 -10 36 C-9.34 36 -8.68 36 -8 36 C-7.71125 35.236875 -7.4225 34.47375 -7.125 33.6875 C-6 31 -6 31 -4 28 C-4.99 28.66 -5.98 29.32 -7 30 C-10.1875 30.125 -10.1875 30.125 -13 30 C-12.67 28.68 -12.34 27.36 -12 26 C-11.34 26 -10.68 26 -10 26 C-10 25.34 -10 24.68 -10 24 C-9.34 24 -8.68 24 -8 24 C-8 23.34 -8 22.68 -8 22 C-7.34 22 -6.68 22 -6 22 C-5.34 20.02 -4.68 18.04 -4 16 C-5.65 16 -7.3 16 -9 16 C-8.42676569 12.13066838 -6.61046448 9.84777943 -4 7 C-3.34 7 -2.68 7 -2 7 C-1.855625 6.21625 -1.71125 5.4325 -1.5625 4.625 C-1 2 -1 2 0 0 Z M-121 49 C-121 49.66 -121 50.32 -121 51 C-121.66 51 -122.32 51 -123 51 C-127.67716229 57.28493683 -127.8643613 63.31120475 -127 71 C-126.07902277 73.3117187 -126.07902277 73.3117187 -125 75 C-124.236875 74.731875 -123.47375 74.46375 -122.6875 74.1875 C-109.55741467 69.95916744 -109.55741467 69.95916744 -103.125 69.8125 C-96.17555119 69.34173089 -90.57551472 64.83644352 -85 61 C-86.77138102 55.00126523 -89.25650688 51.07742388 -94 47 C-103.07352482 42.18319053 -112.65141088 43.10687826 -121 49 Z M6 51 C6 57.93 6 64.86 6 72 C12.37618447 75.74059534 12.37618447 75.74059534 18.9375 77.25 C21.4434375 77.62125 21.4434375 77.62125 24 78 C24 74.37 24 70.74 24 67 C20.90521121 65.96840374 19.47368607 66.02517138 16.3125 66.4375 C15.50425781 66.53933594 14.69601563 66.64117187 13.86328125 66.74609375 C13.24839844 66.82988281 12.63351563 66.91367188 12 67 C13 64 13 64 15.4375 62.0625 C17.89305131 60.08608065 18.87039721 58.87535256 20 56 C19.443125 56.2475 18.88625 56.495 18.3125 56.75 C16 57 16 57 13.5625 55.1875 C12.716875 54.465625 11.87125 53.74375 11 53 C8.525 52.01 8.525 52.01 6 51 Z " fill="#55643C" transform="translate(198,0)"/>
<path d="M0 0 C0 0.99 0 1.98 0 3 C-0.49113281 3.41894531 -0.98226563 3.83789062 -1.48828125 4.26953125 C-3.80571029 6.92229886 -3.28965947 9.24813121 -3.1875 12.6875 C-3.125625 14.770625 -3.06375 16.85375 -3 19 C2.94 19 8.88 19 15 19 C14.896875 16.73125 14.79375 14.4625 14.6875 12.125 C14.62949219 10.84882813 14.57148437 9.57265625 14.51171875 8.2578125 C14.25841797 6.64519531 14.25841797 6.64519531 14 5 C13.01 4.34 12.02 3.68 11 3 C11 2.01 11 1.02 11 0 C16.88018669 -1.96006223 22.99690429 -1.00051595 29 0 C29 0.99 29 1.98 29 3 C28.34 3 27.68 3 27 3 C27 3.66 27 4.32 27 5 C26.34 5 25.68 5 25 5 C25.2477417 5.77706299 25.2477417 5.77706299 25.50048828 6.56982422 C26.14907274 9.7252542 26.0562595 12.66181544 25.9921875 15.8828125 C25.97468396 17.22785721 25.95777447 18.57290975 25.94140625 19.91796875 C25.9103492 22.02935505 25.87466517 24.14034926 25.82861328 26.25146484 C25.78639904 28.29529824 25.76288192 30.33866357 25.7421875 32.3828125 C25.7201123 33.60371582 25.69803711 34.82461914 25.67529297 36.08251953 C25.83602295 37.52667236 25.83602295 37.52667236 26 39 C26.99 39.66 27.98 40.32 29 41 C28.67 42.32 28.34 43.64 28 45 C25.91814549 45.22262606 23.83439574 45.42757926 21.75 45.625 C20.58984375 45.74101562 19.4296875 45.85703125 18.234375 45.9765625 C15.06127909 45.99955595 13.61682756 45.69705154 11 44 C11.33 43.01 11.66 42.02 12 41 C12.99 40.505 12.99 40.505 14 40 C14 35.05 14 30.1 14 25 C8.06 24.67 2.12 24.34 -4 24 C-3.896875 26.413125 -3.79375 28.82625 -3.6875 31.3125 C-3.66260498 32.06829346 -3.63770996 32.82408691 -3.61206055 33.6027832 C-3.44675821 36.60597675 -3.33394621 38.57136524 -1.45703125 40.98046875 C-0.97621094 41.31691406 -0.49539062 41.65335938 0 42 C-0.66 43.32 -1.32 44.64 -2 46 C-3.66611905 46.042721 -5.33382885 46.04063832 -7 46 C-7.33 45.67 -7.66 45.34 -8 45 C-9.68608966 44.92794489 -11.37500659 44.91613932 -13.0625 44.9375 C-14.44115234 44.95103516 -14.44115234 44.95103516 -15.84765625 44.96484375 C-16.91306641 44.98224609 -16.91306641 44.98224609 -18 45 C-17.67 43.68 -17.34 42.36 -17 41 C-16.34 41 -15.68 41 -15 41 C-14.9259579 35.90970056 -14.87144992 30.81971308 -14.83520508 25.72900391 C-14.8200991 23.99652651 -14.79961306 22.26408746 -14.77368164 20.53173828 C-14.73737679 18.04450022 -14.72029235 15.55776674 -14.70703125 13.0703125 C-14.69154739 12.29317902 -14.67606354 11.51604553 -14.66011047 10.71536255 C-14.62430435 8.30264162 -14.62430435 8.30264162 -15 5 C-15.99 4.34 -16.98 3.68 -18 3 C-18 2.01 -18 1.02 -18 0 C-15.75067773 -0.1954625 -13.50049858 -0.38108226 -11.25 -0.5625 C-9.99703125 -0.66691406 -8.7440625 -0.77132812 -7.453125 -0.87890625 C-4.60547636 -0.97876723 -2.65713933 -0.90584295 0 0 Z " fill="#586641" transform="translate(20,120)"/>
<path d="M0 0 C2.36948336 2.11877039 4.27079228 4.3360854 6 7 C6.37125 7.55171875 6.7425 8.1034375 7.125 8.671875 C9.61311064 15.29202653 9.48765374 25.29625518 6.8671875 31.8203125 C5.38897456 33.85575755 3.93651517 35.40104252 2 37 C1.05125 37.78375 0.1025 38.5675 -0.875 39.375 C-8.87468619 43.53483682 -16.21266407 43.52109551 -25 42 C-28.8073261 40.76598186 -32.15520983 39.49546998 -34.20703125 35.86328125 C-34.46871094 35.24839844 -34.73039063 34.63351563 -35 34 C-35.66 34 -36.32 34 -37 34 C-40.91235071 27.08352285 -42.04574163 20.90235682 -41 13 C-39.03020618 6.04161591 -34.35548261 1.49287882 -28.19140625 -2.03515625 C-19.18023511 -6.06301861 -8.35330114 -5.09818913 0 0 Z M-27 4 C-30.55379833 9.36440561 -31.60219709 14.68625154 -30.4765625 20.9765625 C-28.94747769 27.4689062 -26.53649293 33.19519526 -21.1875 37.4375 C-16.05104439 38.75830287 -12.3798791 38.67692182 -7.6875 36.375 C-3.75040884 32.89571014 -2.28142137 30.34205118 -1.6484375 25.07421875 C-1.27233791 16.6515673 -2.79468271 9.71472428 -8.515625 3.30078125 C-14.31669618 -1.78278902 -21.36719518 -0.480902 -27 4 Z " fill="#57643F" transform="translate(244,123)"/>
<path d="M0 0 C4.18736668 -0.08760181 8.37449531 -0.14059435 12.5625 -0.1875 C13.74392578 -0.21263672 14.92535156 -0.23777344 16.14257812 -0.26367188 C23.87770405 -0.32867293 28.97854321 0.14264912 35.375 4.6875 C38.49374147 9.12570902 38.21931763 13.56225108 37.4375 18.6875 C35.71637819 22.65356331 33.79560845 25.012933 30 27 C25.01130054 28.53252847 20.20768401 29.10211145 15 29 C14.91909029 30.62418745 14.86085005 32.24951745 14.8125 33.875 C14.77769531 34.77992188 14.74289062 35.68484375 14.70703125 36.6171875 C14.80371094 37.40351563 14.90039062 38.18984375 15 39 C15.99 39.66 16.98 40.32 18 41 C18 41.99 18 42.98 18 44 C4.57142857 46.28571429 4.57142857 46.28571429 0 44 C0.33 43.01 0.66 42.02 1 41 C1.66 41 2.32 41 3 41 C3.0740421 35.90970056 3.12855008 30.81971308 3.16479492 25.72900391 C3.1799009 23.99652651 3.20038694 22.26408746 3.22631836 20.53173828 C3.26262321 18.04450022 3.27970765 15.55776674 3.29296875 13.0703125 C3.30845261 12.29317902 3.32393646 11.51604553 3.33988953 10.71536255 C3.37569565 8.30264162 3.37569565 8.30264162 3 5 C2.01 4.34 1.02 3.68 0 3 C0 2.01 0 1.02 0 0 Z M14 4 C13.9730499 6.93756119 13.95318526 9.87487555 13.9375 12.8125 C13.92912109 13.64587891 13.92074219 14.47925781 13.91210938 15.33789062 C13.90888672 16.14033203 13.90566406 16.94277344 13.90234375 17.76953125 C13.89710693 18.50792236 13.89187012 19.24631348 13.88647461 20.00708008 C13.92476787 22.21057409 13.92476787 22.21057409 15 25 C20.51037567 24.68481872 20.51037567 24.68481872 25.4375 22.5 C27.74731202 18.80430077 28.20210531 15.32655069 28 11 C26.9341509 7.52847221 26.9341509 7.52847221 25 5 C22.24921116 4.08307039 20.64051087 3.89113917 17.8125 3.9375 C16.554375 3.958125 15.29625 3.97875 14 4 Z " fill="#5B6643" transform="translate(258,120)"/>
<path d="M0 0 C1.04125534 -0.00143509 1.04125534 -0.00143509 2.10354614 -0.00289917 C3.57114757 -0.00357908 5.03875202 -0.00173795 6.50634766 0.00244141 C8.74258259 0.00777617 10.97861519 0.00249846 13.21484375 -0.00390625 C14.64322961 -0.00324512 16.07161534 -0.00196323 17.5 0 C18.79534668 0.00112793 20.09069336 0.00225586 21.42529297 0.00341797 C24.38714647 0.11426265 27.01057059 0.44003463 29.8828125 1.1328125 C30.22012092 2.56938495 30.55250841 4.00711343 30.8828125 5.4453125 C31.0684375 6.24582031 31.2540625 7.04632813 31.4453125 7.87109375 C31.8828125 10.1328125 31.8828125 10.1328125 31.8828125 13.1328125 C30.5628125 13.1328125 29.2428125 13.1328125 27.8828125 13.1328125 C27.2228125 11.4828125 26.5628125 9.8328125 25.8828125 8.1328125 C25.2228125 8.1328125 24.5628125 8.1328125 23.8828125 8.1328125 C23.8828125 7.4728125 23.8828125 6.8128125 23.8828125 6.1328125 C21.2428125 6.1328125 18.6028125 6.1328125 15.8828125 6.1328125 C15.78367676 10.88332069 15.71121986 15.63322226 15.66308594 20.38452148 C15.64301358 21.99953708 15.6157492 23.61448039 15.58105469 25.22924805 C15.53234035 27.55535751 15.50980096 29.88050343 15.4921875 32.20703125 C15.47154236 32.92493332 15.45089722 33.64283539 15.42962646 34.38249207 C15.4274594 39.26232238 16.46949257 41.66929669 19.8828125 45.1328125 C16.16851352 46.2489781 12.49119742 46.445232 8.6328125 46.6953125 C7.36953125 46.77910156 6.10625 46.86289063 4.8046875 46.94921875 C3.84046875 47.00980469 2.87625 47.07039063 1.8828125 47.1328125 C1.5528125 45.8128125 1.2228125 44.4928125 0.8828125 43.1328125 C2.2028125 42.4728125 3.5228125 41.8128125 4.8828125 41.1328125 C4.72039062 39.88113281 4.55796875 38.62945312 4.390625 37.33984375 C3.7796084 31.82666039 3.73539096 26.36216898 3.7578125 20.8203125 C3.75394531 19.84513672 3.75007812 18.86996094 3.74609375 17.86523438 C3.74738281 16.92615234 3.74867188 15.98707031 3.75 15.01953125 C3.75112793 14.17608154 3.75225586 13.33263184 3.75341797 12.46362305 C3.8828125 10.1328125 3.8828125 10.1328125 4.8828125 6.1328125 C1.9128125 6.1328125 -1.0571875 6.1328125 -4.1171875 6.1328125 C-4.1171875 6.7928125 -4.1171875 7.4528125 -4.1171875 8.1328125 C-4.7771875 8.1328125 -5.4371875 8.1328125 -6.1171875 8.1328125 C-6.3646875 8.7721875 -6.6121875 9.4115625 -6.8671875 10.0703125 C-8.1171875 12.1328125 -8.1171875 12.1328125 -10.2421875 12.8828125 C-11.1703125 13.0065625 -11.1703125 13.0065625 -12.1171875 13.1328125 C-12.29281879 8.6542146 -12.33804088 5.10697118 -10.1171875 1.1328125 C-6.57338337 -0.04845554 -3.73927879 0.00326168 0 0 Z " fill="#505E37" transform="translate(168.1171875,118.8671875)"/>
<path d="M0 0 C0 0.99 0 1.98 0 3 C-0.48895752 3.39743408 -0.97791504 3.79486816 -1.48168945 4.2043457 C-3.87600703 7.03602375 -3.36810684 10.19663257 -3.29296875 13.73046875 C-3.28872391 14.48088943 -3.28447906 15.23131012 -3.28010559 16.00447083 C-3.2633245 18.39918026 -3.2256749 20.79304534 -3.1875 23.1875 C-3.17245235 24.8118368 -3.15876409 26.4361868 -3.14648438 28.06054688 C-3.11342305 32.04068948 -3.06164594 36.02020163 -3 40 C-0.8939014 39.74462428 1.20988754 39.47014626 3.3125 39.1875 C4.48425781 39.03667969 5.65601563 38.88585937 6.86328125 38.73046875 C10.03645736 37.99150993 11.10509759 37.56067894 13 35 C14.17574711 32.90010348 14.17574711 32.90010348 15 31 C15.99 31.33 16.98 31.66 18 32 C18.97932602 34.61153606 19.19308621 36.41301793 18.31640625 39.078125 C15.70132525 44.73565433 15.70132525 44.73565433 12.96875 45.765625 C11 46 11 46 9.1875 45.5 C6.85257982 44.82804597 6.85257982 44.82804597 3.84765625 45.45703125 C-0.06395522 46.00902515 -3.80163795 46.16767891 -7.75 46.1875 C-9.04421875 46.20167969 -10.3384375 46.21585938 -11.671875 46.23046875 C-15 46 -15 46 -18 44 C-18 43.01 -18 42.02 -18 41 C-17.01 40.34 -16.02 39.68 -15 39 C-14.69558084 36.39922648 -14.57982555 34.04016599 -14.6015625 31.4375 C-14.59869232 30.69040771 -14.59582214 29.94331543 -14.59286499 29.17358398 C-14.59082253 27.59325401 -14.59636519 26.01289887 -14.60888672 24.43261719 C-14.62493911 22.00919236 -14.60904561 19.58743526 -14.58984375 17.1640625 C-14.59182615 15.63020464 -14.59566977 14.09634782 -14.6015625 12.5625 C-14.59245346 11.47183228 -14.59245346 11.47183228 -14.5831604 10.35913086 C-14.58003886 8.09813197 -14.58003886 8.09813197 -15 5 C-15.99 4.34 -16.98 3.68 -18 3 C-18 2.01 -18 1.02 -18 0 C-5.33333333 -1.77777778 -5.33333333 -1.77777778 0 0 Z " fill="#5E6B45" transform="translate(141,120)"/>
<path d="M0 0 C0 0.99 0 1.98 0 3 C-0.99 3.66 -1.98 4.32 -3 5 C-3.26686213 7.69540315 -3.34818073 10.15847464 -3.29296875 12.8515625 C-3.28872391 13.62559418 -3.28447906 14.39962585 -3.28010559 15.19711304 C-3.26328998 17.67342677 -3.22563395 20.14893158 -3.1875 22.625 C-3.17245682 24.30207159 -3.15876778 25.97915592 -3.14648438 27.65625 C-3.11337721 31.77114581 -3.06157637 35.88543569 -3 40 C-1.06469827 39.73075371 0.86854095 39.44665279 2.80078125 39.15625 C3.87755127 38.99962891 4.95432129 38.84300781 6.0637207 38.68164062 C10.18793906 37.72422667 11.55327091 36.37479874 14 33 C14.495 32.01 14.495 32.01 15 31 C15.99 31.33 16.98 31.66 18 32 C19.05174997 35.15524991 18.99348231 36.38098507 18.375 39.5625 C18.17003906 40.74005859 18.17003906 40.74005859 17.9609375 41.94140625 C17 44 17 44 14.79296875 45.3046875 C11.58144568 46.10419954 9.21839485 45.95685787 5.9375 45.5625 C0.35453648 45.01117443 -4.78229679 45.17148643 -10.34375 45.84375 C-13.09499426 46.0055879 -15.33394442 45.65685427 -18 45 C-18 43.68 -18 42.36 -18 41 C-17.01 40.34 -16.02 39.68 -15 39 C-14.69558084 36.39922648 -14.57982555 34.04016599 -14.6015625 31.4375 C-14.59869232 30.69040771 -14.59582214 29.94331543 -14.59286499 29.17358398 C-14.59082253 27.59325401 -14.59636519 26.01289887 -14.60888672 24.43261719 C-14.62493911 22.00919236 -14.60904561 19.58743526 -14.58984375 17.1640625 C-14.59182615 15.63020464 -14.59566977 14.09634782 -14.6015625 12.5625 C-14.59245346 11.47183228 -14.59245346 11.47183228 -14.5831604 10.35913086 C-14.58003886 8.09813197 -14.58003886 8.09813197 -15 5 C-15.99 4.34 -16.98 3.68 -18 3 C-18 2.01 -18 1.02 -18 0 C-5.33029613 -1.33257403 -5.33029613 -1.33257403 0 0 Z " fill="#596440" transform="translate(99,120)"/>
<path d="M0 0 C5.94 0 11.88 0 18 0 C18.33 0.99 18.66 1.98 19 3 C17.68 3.33 16.36 3.66 15 4 C15 16.21 15 28.42 15 41 C16.32 41.33 17.64 41.66 19 42 C19 42.66 19 43.32 19 44 C18.34 44 17.68 44 17 44 C16.67 44.66 16.34 45.32 16 46 C14.27119018 46.05449838 12.54187288 46.09301688 10.8125 46.125 C9.84957031 46.14820313 8.88664062 46.17140625 7.89453125 46.1953125 C4.87187222 45.9913544 2.73230015 45.26874632 0 44 C0 43.01 0 42.02 0 41 C0.66 41 1.32 41 2 41 C2.89587605 28.6497088 3.11522956 16.38077633 3 4 C2.01 3.67 1.02 3.34 0 3 C0 2.01 0 1.02 0 0 Z " fill="#4F5C36" transform="translate(56,120)"/>
<path d="M0 0 C0 0.99 0 1.98 0 3 C-0.66 3 -1.32 3 -2 3 C-2 3.66 -2 4.32 -2 5 C-2.66 5 -3.32 5 -4 5 C-3.7522583 5.77706299 -3.7522583 5.77706299 -3.49951172 6.56982422 C-2.85092726 9.7252542 -2.9437405 12.66181544 -3.0078125 15.8828125 C-3.02531604 17.22785721 -3.04222553 18.57290975 -3.05859375 19.91796875 C-3.0896508 22.02935505 -3.12533483 24.14034926 -3.17138672 26.25146484 C-3.21360096 28.29529824 -3.23711808 30.33866357 -3.2578125 32.3828125 C-3.2798877 33.60371582 -3.30196289 34.82461914 -3.32470703 36.08251953 C-3.21755371 37.04528809 -3.11040039 38.00805664 -3 39 C-2.01 39.66 -1.02 40.32 0 41 C-0.33 42.32 -0.66 43.64 -1 45 C-3.08185451 45.22262606 -5.16560426 45.42757926 -7.25 45.625 C-8.41015625 45.74101562 -9.5703125 45.85703125 -10.765625 45.9765625 C-13.93872091 45.99955595 -15.38317244 45.69705154 -18 44 C-17 41 -17 41 -15.48046875 39.66796875 C-13.38874915 37.31133479 -13.49503204 35.41554462 -13.3125 32.3125 C-13.24675781 31.31863281 -13.18101563 30.32476562 -13.11328125 29.30078125 C-13.07589844 28.54152344 -13.03851563 27.78226563 -13 27 C-12.67 27 -12.34 27 -12 27 C-12 28.98 -12 30.96 -12 33 C-11.01 33 -10.02 33 -9 33 C-9.33 31.68 -9.66 30.36 -10 29 C-8.68 29 -7.36 29 -6 29 C-6 25.7 -6 22.4 -6 19 C-7.98 18.34 -9.96 17.68 -12 17 C-11.67 17.99 -11.34 18.98 -11 20 C-11.66 20 -12.32 20 -13 20 C-13.02578125 19.02417969 -13.0515625 18.04835937 -13.078125 17.04296875 C-13.13484375 15.77066406 -13.1915625 14.49835938 -13.25 13.1875 C-13.29640625 11.92292969 -13.3428125 10.65835938 -13.390625 9.35546875 C-13.64962601 5.92792446 -13.64962601 5.92792446 -16.046875 4.23828125 C-16.69140625 3.82964844 -17.3359375 3.42101562 -18 3 C-18 2.01 -18 1.02 -18 0 C-12.83047166 -2.58476417 -5.51353963 -0.93847483 0 0 Z " fill="#53613B" transform="translate(49,120)"/>
<path d="M0 0 C0.99 0 1.98 0 3 0 C3 1.65 3 3.3 3 5 C2.34 5 1.68 5 1 5 C0.91878906 5.57621094 0.83757812 6.15242188 0.75390625 6.74609375 C-0.95774442 11.86330845 -6.62289655 15.76030577 -11.26953125 18.18359375 C-14.26067332 19.34342435 -16.78278878 20 -20 20 C-20.33 20.66 -20.66 21.32 -21 22 C-21.83144531 22.12246094 -22.66289063 22.24492188 -23.51953125 22.37109375 C-28.0154688 23.183491 -31.62422462 25.03261523 -35.6875 27.0625 C-37.18878678 27.80867907 -38.69260152 28.54979938 -40.19921875 29.28515625 C-40.85752686 29.61394775 -41.51583496 29.94273926 -42.1940918 30.28149414 C-44 31 -44 31 -47 31 C-47.33 30.01 -47.66 29.02 -48 28 C-37.41358012 19.78927277 -27.30126436 14.21065002 -14.2265625 11.0546875 C-9.31114998 9.44795459 -5.35163068 6.9727921 -2.3125 2.75 C-1.549375 1.8425 -0.78625 0.935 0 0 Z " fill="#596344" transform="translate(130,73)"/>
<path d="M0 0 C1.4375 1.8125 1.4375 1.8125 2 4 C1.36729133 5.34977849 0.69937532 6.68352881 0 8 C0.165 8.598125 0.33 9.19625 0.5 9.8125 C1.26139817 13.14361701 -0.02252279 15.78007508 -1 19 C-1 20.32 -1 21.64 -1 23 C-1.66 23 -2.32 23 -3 23 C-3.33 23.66 -3.66 24.32 -4 25 C-4.33 24.34 -4.66 23.68 -5 23 C-5.66 23 -6.32 23 -7 23 C-7.33 23.66 -7.66 24.32 -8 25 C-8.33 16.75 -8.66 8.5 -9 0 C-5.17223377 -0.95694156 -3.62458922 -1.23999105 0 0 Z " fill="#54633B" transform="translate(270,123)"/>
<path d="M0 0 C4.46573511 -0.02479481 8.9314333 -0.04290486 13.3972168 -0.05493164 C14.91512755 -0.05994766 16.4330335 -0.06676203 17.95092773 -0.07543945 C20.13787016 -0.08762497 22.32474846 -0.09325572 24.51171875 -0.09765625 C25.82615967 -0.10289307 27.14060059 -0.10812988 28.49487305 -0.11352539 C31.48205125 -0.01677552 34.10592611 0.29656236 37 1 C37.33730842 2.43657245 37.66969591 3.87430093 38 5.3125 C38.185625 6.11300781 38.37125 6.91351563 38.5625 7.73828125 C39 10 39 10 39 13 C37.68 13 36.36 13 35 13 C34.34 11.35 33.68 9.7 33 8 C32.34 8 31.68 8 31 8 C31 7.34 31 6.68 31 6 C30.00419922 6.03480469 30.00419922 6.03480469 28.98828125 6.0703125 C24.01956077 6.17186299 20.61014812 5.89134282 16 4 C14.56319057 3.95544777 13.12446811 3.96089883 11.6875 4 C7.12098906 4.1225909 3.37661422 3.27319686 -1 2 C-0.67 1.34 -0.34 0.68 0 0 Z " fill="#576142" transform="translate(161,119)"/>
<path d="M0 0 C2.25 0 2.25 0 5 1 C7.05695657 3.99014453 9 7.313902 9 11 C9.66 11 10.32 11 11 11 C11 11.66 11 12.32 11 13 C11.66 13 12.32 13 13 13 C13 13.99 13 14.98 13 16 C10.525 15.505 10.525 15.505 8 15 C7.67 13.68 7.34 12.36 7 11 C5.68 11.33 4.36 11.66 3 12 C3 11.01 3 10.02 3 9 C1.68 9.33 0.36 9.66 -1 10 C-1 12.48349306 -0.82158241 14.73543415 -0.5 17.1875 C-0.335 18.445625 -0.17 19.70375 0 21 C-1.65 20.67 -3.3 20.34 -5 20 C-4.67 18.68 -4.34 17.36 -4 16 C-5.65 16 -7.3 16 -9 16 C-8.42676569 12.13066838 -6.61046448 9.84777943 -4 7 C-3.34 7 -2.68 7 -2 7 C-1.855625 6.21625 -1.71125 5.4325 -1.5625 4.625 C-1 2 -1 2 0 0 Z " fill="#586240" transform="translate(198,0)"/>
<path d="M0 0 C1.49739583 1.26953125 2.99479167 2.5390625 4.4921875 3.80859375 C8.01472649 6.5919471 11.69397113 6.28991085 16 6 C16.99 5.67 17.98 5.34 19 5 C22.1875 5.9375 22.1875 5.9375 25 7 C25 7.66 25 8.32 25 9 C16.80638766 12.27374579 8.33918522 13.1894835 -0.16015625 10.25390625 C-1.8125 9.4375 -1.8125 9.4375 -4 8 C-3.67 7.01 -3.34 6.02 -3 5 C-2.34 5 -1.68 5 -1 5 C-0.67 3.35 -0.34 1.7 0 0 Z " fill="#5C6545" transform="translate(217,154)"/>
<path d="M0 0 C0.33 0 0.66 0 1 0 C1 4.62 1 9.24 1 14 C1.33 13.01 1.66 12.02 2 11 C4.31 11.33 6.62 11.66 9 12 C8.91306859 13.79258558 8.80489496 15.58415144 8.6875 17.375 C8.62949219 18.37273437 8.57148437 19.37046875 8.51171875 20.3984375 C8.34285156 21.25695312 8.17398438 22.11546875 8 23 C7.01 23.66 6.02 24.32 5 25 C5 25.66 5 26.32 5 27 C4.01 27 3.02 27 2 27 C1.67 28.65 1.34 30.3 1 32 C0.67 32 0.34 32 0 32 C-0.03738281 31.08476562 -0.07476562 30.16953125 -0.11328125 29.2265625 C-0.21189453 27.44378906 -0.21189453 27.44378906 -0.3125 25.625 C-0.37050781 24.44164062 -0.42851563 23.25828125 -0.48828125 22.0390625 C-0.65714844 21.03617188 -0.82601562 20.03328125 -1 19 C-1.99 18.34 -2.98 17.68 -4 17 C-4 16.34 -4 15.68 -4 15 C-5.32 14.34 -6.64 13.68 -8 13 C-5.36 13 -2.72 13 0 13 C0 8.71 0 4.42 0 0 Z " fill="#707E57" transform="translate(35,126)"/>
<path d="M0 0 C2.5 2.125 2.5 2.125 4 4 C4 4.66 4 5.32 4 6 C4.66 6 5.32 6 6 6 C6.33 7.32 6.66 8.64 7 10 C5.68 9.67 4.36 9.34 3 9 C2.67 9.66 2.34 10.32 2 11 C1.67128906 10.52949219 1.34257813 10.05898438 1.00390625 9.57421875 C-3.87733491 3.18495186 -8.88656936 1.79381995 -16.5625 0.3125 C-17.366875 0.209375 -18.17125 0.10625 -19 0 C-19 -0.99 -19 -1.98 -19 -3 C-20.65 -3 -22.3 -3 -24 -3 C-24 -3.33 -24 -3.66 -24 -4 C-15.45311572 -6.02426207 -7.33716698 -4.81818569 0 0 Z " fill="#687153" transform="translate(108,44)"/>
<path d="M0 0 C4.42128047 1.25641846 8.71717885 2.36396333 13.3125 2.75 C14.50875 2.87375 15.705 2.9975 16.9375 3.125 C17.2675 3.785 17.5975 4.445 17.9375 5.125 C17.6075 5.785 17.2775 6.445 16.9375 7.125 C7.3675 6.795 -2.2025 6.465 -12.0625 6.125 C-8.26567563 -2.73425686 -7.99649938 -2.35442761 0 0 Z " fill="#576442" transform="translate(265.0625,96.875)"/>
<path d="M0 0 C0.99 0.33 1.98 0.66 3 1 C3.97932602 3.61153606 4.19308621 5.41301793 3.31640625 8.078125 C0.70132525 13.73565433 0.70132525 13.73565433 -2.03125 14.765625 C-4 15 -4 15 -5.8125 14.5 C-8.17450287 13.81977022 -8.17450287 13.81977022 -11.3125 14.5 C-15.14801584 15.02006994 -18.21173509 14.69580376 -22 14 C-22 13.67 -22 13.34 -22 13 C-18.7 12.67 -15.4 12.34 -12 12 C-11.67 10.68 -11.34 9.36 -11 8 C-9.39125 7.690625 -9.39125 7.690625 -7.75 7.375 C-3.29408826 5.7411657 -2.22222392 4.08889201 0 0 Z " fill="#677153" transform="translate(156,151)"/>
<path d="M0 0 C4 1 4 1 5.23046875 2.9609375 C5.70419922 4.15589844 5.70419922 4.15589844 6.1875 5.375 C6.51105469 6.16648437 6.83460938 6.95796875 7.16796875 7.7734375 C9.05707196 12.82878412 9.05707196 12.82878412 8 16 C7.05125 15.95875 6.1025 15.9175 5.125 15.875 C1.89755144 15.65026182 1.89755144 15.65026182 0 18 C-0.99 18.33 -1.98 18.66 -3 19 C-2.67 17.68 -2.34 16.36 -2 15 C-2.99 14.67 -3.98 14.34 -5 14 C-4.01 13.67 -3.02 13.34 -2 13 C-1.34 8.71 -0.68 4.42 0 0 Z " fill="#535E3A" transform="translate(222,28)"/>
<path d="M0 0 C-0.19335938 0.56589844 -0.38671875 1.13179687 -0.5859375 1.71484375 C-1.08751021 4.48295732 -0.59206337 5.94078233 0.375 8.5625 C0.65085937 9.32691406 0.92671875 10.09132812 1.2109375 10.87890625 C1.47132812 11.57886719 1.73171875 12.27882812 2 13 C2.33 13.99 2.66 14.98 3 16 C0.03 16 -2.94 16 -6 16 C-5.979375 14.783125 -5.95875 13.56625 -5.9375 12.3125 C-5.92855249 9.78035488 -6.0625842 7.68707902 -6.5625 5.1875 C-7 3 -7 3 -6 0 C-3.42525708 -0.99667468 -2.51072708 -1.25536354 0 0 Z " fill="#516135" transform="translate(13,147)"/>
<path d="M0 0 C0.66 0.33 1.32 0.66 2 1 C1.67 1.99 1.34 2.98 1 4 C1.33 4.33 1.66 4.66 2 5 C2.66 3.68 3.32 2.36 4 1 C4.33 6.94 4.66 12.88 5 19 C4.34 19.33 3.68 19.66 3 20 C2.67 19.01 2.34 18.02 2 17 C1.34 18.32 0.68 19.64 0 21 C-0.66 21 -1.32 21 -2 21 C-2.93389631 16.42882334 -3.0164316 12.33672724 -2.6875 7.6875 C-2.60886719 6.45386719 -2.53023437 5.22023438 -2.44921875 3.94921875 C-2.30097656 2.97597656 -2.15273437 2.00273438 -2 1 C-1.34 0.67 -0.68 0.34 0 0 Z " fill="#697351" transform="translate(200,50)"/>
<path d="M0 0 C0.99 0 1.98 0 3 0 C10.63106796 16.10679612 10.63106796 16.10679612 9 21 C7.10864258 20.71606445 7.10864258 20.71606445 5 20 C3.67482284 17.36453531 2.65191089 14.9502109 1.6875 12.1875 C1.41099609 11.46240234 1.13449219 10.73730469 0.84960938 9.99023438 C-0.53750711 6.17129655 -1.2817993 3.97561944 0 0 Z " fill="#5F654C" transform="translate(73,16)"/>
<path d="M0 0 C3.37462715 0.54723683 5.08235 1.0549 8 3 C7.67 4.32 7.34 5.64 7 7 C4.91814549 7.22262606 2.83439574 7.42757926 0.75 7.625 C-0.41015625 7.74101562 -1.5703125 7.85703125 -2.765625 7.9765625 C-5.93872091 7.99955595 -7.38317244 7.69705154 -10 6 C-9.67 5.01 -9.34 4.02 -9 3 C-6.93359375 2.26953125 -6.93359375 2.26953125 -4.4375 1.8125 C-3.61121094 1.65394531 -2.78492188 1.49539062 -1.93359375 1.33203125 C-1.29550781 1.22246094 -0.65742187 1.11289063 0 1 C0 0.67 0 0.34 0 0 Z " fill="#55623A" transform="translate(41,158)"/>
<path d="M0 0 C0.66 0.99 1.32 1.98 2 3 C4.58380177 3.25030977 4.58380177 3.25030977 7 3 C2.14822415 6.9853873 -1.54209133 7.12457909 -7.75 7.0625 C-8.92046875 7.05347656 -10.0909375 7.04445313 -11.296875 7.03515625 C-12.18890625 7.02355469 -13.0809375 7.01195313 -14 7 C-14.33 6.01 -14.66 5.02 -15 4 C-13.06441401 3.32779649 -11.12645628 2.66241923 -9.1875 2 C-8.10855469 1.62875 -7.02960937 1.2575 -5.91796875 0.875 C-3 0 -3 0 0 0 Z " fill="#5F6847" transform="translate(38,97)"/>
<path d="M0 0 C1.661155 2.99007901 2.33296763 5.66483813 3 9 C3.99083967 11.23408113 3.99083967 11.23408113 5 13 C1.50507983 15.12191582 1.50507983 15.12191582 -0.8125 14.5625 C-1.534375 14.376875 -2.25625 14.19125 -3 14 C-4.74886981 13.93375493 -6.50002748 13.91447405 -8.25 13.9375 C-9.58804687 13.95103516 -9.58804687 13.95103516 -10.953125 13.96484375 C-11.62859375 13.97644531 -12.3040625 13.98804688 -13 14 C-12.67 12.68 -12.34 11.36 -12 10 C-11.34 10 -10.68 10 -10 10 C-9.67 7.69 -9.34 5.38 -9 3 C-8.34 3.33 -7.68 3.66 -7 4 C-7.33 6.64 -7.66 9.28 -8 12 C-5.36 11.67 -2.72 11.34 0 11 C-0.185625 9.9275 -0.37125 8.855 -0.5625 7.75 C-0.9304568 4.59608454 -1.04465343 2.90181508 0 0 Z " fill="#666E50" transform="translate(15,151)"/>
<path d="M0 0 C0.33 0.66 0.66 1.32 1 2 C1.66 2 2.32 2 3 2 C3.75 5.25 3.75 5.25 4 9 C2.4375 11.4375 2.4375 11.4375 0 13 C-3.25 13.25 -3.25 13.25 -6 13 C-6 10 -6 10 -5 9 C-4.76924918 7.65252916 -4.58846937 6.29622435 -4.4375 4.9375 C-4.2209375 2.9884375 -4.2209375 2.9884375 -4 1 C-2.68 0.67 -1.36 0.34 0 0 Z " fill="#57633D" transform="translate(291,132)"/>
<path d="M0 0 C0.33 0.99 0.66 1.98 1 3 C4.00847418 4.22520264 4.00847418 4.22520264 7 5 C6.67 6.65 6.34 8.3 6 10 C6.66 10.33 7.32 10.66 8 11 C4.68885166 12.12880057 1.41021743 13.21302675 -2 14 C-1.67 12.02 -1.34 10.04 -1 8 C-1.66 8 -2.32 8 -3 8 C-3.33 8.66 -3.66 9.32 -4 10 C-4.33 9.34 -4.66 8.68 -5 8 C-3.95890517 5.43730503 -2.97389657 3.97389657 -1 2 C-0.67 1.34 -0.34 0.68 0 0 Z " fill="#506035" transform="translate(223,48)"/>
<path d="M0 0 C3.33333333 0.66666667 6.66666667 1.33333333 10 2 C11.40185547 2.28037109 11.40185547 2.28037109 12.83203125 2.56640625 C13.54746094 2.70949219 14.26289063 2.85257812 15 3 C15 3.33 15 3.66 15 4 C10.545 4.495 10.545 4.495 6 5 C6 5.66 6 6.32 6 7 C5.34 7 4.68 7 4 7 C3.7525 7.639375 3.505 8.27875 3.25 8.9375 C2 11 2 11 -0.125 11.75 C-1.053125 11.87375 -1.053125 11.87375 -2 12 C-2.17835515 7.45194365 -1.99785435 4.1205746 0 0 Z " fill="#4E5937" transform="translate(158,120)"/>
<path d="M0 0 C7.92 0 15.84 0 24 0 C23.34 1.32 22.68 2.64 22 4 C20.125 4.57421875 20.125 4.57421875 18 4.6875 C14.88466483 4.8751438 14.88466483 4.8751438 12 6 C11.67 5.01 11.34 4.02 11 3 C10.37351562 3.08378906 9.74703125 3.16757813 9.1015625 3.25390625 C8.28429687 3.35574219 7.46703125 3.45757812 6.625 3.5625 C5.81289063 3.66691406 5.00078125 3.77132812 4.1640625 3.87890625 C2 4 2 4 0 3 C0 2.01 0 1.02 0 0 Z " fill="#687453" transform="translate(258,120)"/>
<path d="M0 0 C0.55429688 0.26039062 1.10859375 0.52078125 1.6796875 0.7890625 C0.15949961 4.34158714 -1.93320708 6.73158556 -4.6328125 9.4765625 C-5.39207031 10.26417969 -6.15132812 11.05179688 -6.93359375 11.86328125 C-9.49068028 13.92652783 -11.09235234 14.45198347 -14.3203125 14.7890625 C-12.8956495 10.35499899 -10.70191944 7.70932353 -7.4453125 4.4140625 C-6.58164063 3.51945312 -5.71796875 2.62484375 -4.828125 1.703125 C-2.3203125 -0.2109375 -2.3203125 -0.2109375 0 0 Z " fill="#5C6249" transform="translate(127.3203125,29.2109375)"/>
<path d="M0 0 C1.65 0.33 3.3 0.66 5 1 C5.33 1.99 5.66 2.98 6 4 C7.32 4 8.64 4 10 4 C10 4.66 10 5.32 10 6 C9.01 6.66 8.02 7.32 7 8 C6.74969023 10.58380177 6.74969023 10.58380177 7 13 C4.625 14.0625 4.625 14.0625 2 15 C1.34 14.67 0.68 14.34 0 14 C-0.625 11.4375 -0.625 11.4375 -1 9 C-0.34 8.67 0.32 8.34 1 8 C0.67 5.36 0.34 2.72 0 0 Z " fill="#4B5734" transform="translate(111,53)"/>
<path d="M0 0 C4.11004888 0.40332255 7.06345892 2.96603593 10.25 5.375 C10.80429687 5.77460937 11.35859375 6.17421875 11.9296875 6.5859375 C13.515625 7.7734375 13.515625 7.7734375 16 10 C16 10.99 16 11.98 16 13 C12.05879291 12.43697042 9.2491277 11.3208055 6 9 C6 8.34 6 7.68 6 7 C5.21625 6.7525 4.4325 6.505 3.625 6.25 C0.67682892 4.84610901 0.0975223 3.99324263 -1 1 C-0.67 0.67 -0.34 0.34 0 0 Z " fill="#5A6346" transform="translate(52,34)"/>
<path d="M0 0 C6.27 0 12.54 0 19 0 C19.33 1.32 19.66 2.64 20 4 C13.42150508 4.95494281 7.58183362 4.8931507 1 4 C0.67 2.68 0.34 1.36 0 0 Z " fill="#7D8468" transform="translate(42,61)"/>
<path d="M0 0 C1.32 0 2.64 0 4 0 C3.41509121 6.14154225 2.45933748 12.00679849 1 18 C-0.32 18.33 -1.64 18.66 -3 19 C-4.7093832 15.58123361 -2.95633777 11.93878035 -2.0625 8.375 C-1.86720703 7.57320312 -1.67191406 6.77140625 -1.47070312 5.9453125 C-0.98668398 3.96201453 -0.49413978 1.98080066 0 0 Z " fill="#575F43" transform="translate(101,16)"/>
<path d="M0 0 C0.33 0 0.66 0 1 0 C1.33 4.29 1.66 8.58 2 13 C3.32 13.33 4.64 13.66 6 14 C6 14.66 6 15.32 6 16 C5.34 16 4.68 16 4 16 C3.67 16.66 3.34 17.32 3 18 C1.25034642 18.05429959 -0.49979787 18.09292823 -2.25 18.125 C-3.22453125 18.14820313 -4.1990625 18.17140625 -5.203125 18.1953125 C-8.0196498 17.99862781 -9.60949036 17.44568916 -12 16 C-9.36 15.67 -6.72 15.34 -4 15 C-4.061875 14.05125 -4.12375 13.1025 -4.1875 12.125 C-4.125625 11.09375 -4.06375 10.0625 -4 9 C-3.01 8.34 -2.02 7.68 -1 7 C-0.26393501 3.43230448 -0.26393501 3.43230448 0 0 Z " fill="#71795A" transform="translate(69,148)"/>
<path d="M0 0 C2.29013653 3.4352048 2.17842973 4.985331 2 9 C1.01 9 0.02 9 -1 9 C-0.67 9.99 -0.34 10.98 0 12 C-0.99 12.495 -0.99 12.495 -2 13 C-2.08226668 16.04386724 -1.97608217 18.07175348 -1 21 C-1.66 21.99 -2.32 22.98 -3 24 C-5.57090655 21.42909345 -6.01134823 19.91488828 -6.5 16.25 C-6.36416805 11.96729842 -4.66378999 9.26858791 -2.19140625 5.859375 C-0.93734486 3.9022169 -0.43670849 2.2688763 0 0 Z " fill="#5C6745" transform="translate(149,54)"/>
<path d="M0 0 C4.46573511 -0.02479481 8.9314333 -0.04290486 13.3972168 -0.05493164 C14.91512755 -0.05994766 16.4330335 -0.06676203 17.95092773 -0.07543945 C20.13787016 -0.08762497 22.32474846 -0.09325572 24.51171875 -0.09765625 C25.82615967 -0.10289307 27.14060059 -0.10812988 28.49487305 -0.11352539 C31.48205125 -0.01677552 34.10592611 0.29656236 37 1 C36.67 2.32 36.34 3.64 36 5 C36 4.01 36 3.02 36 2 C33.47891897 2.14224587 30.95819597 2.28870121 28.4375 2.4375 C27.73302734 2.47681641 27.02855469 2.51613281 26.30273438 2.55664062 C21.82375896 2.82496634 17.44063161 3.32950859 13 4 C7.95190539 4.32221881 3.83268807 3.33315533 -1 2 C-0.67 1.34 -0.34 0.68 0 0 Z " fill="#7C8667" transform="translate(161,119)"/>
<path d="M0 0 C1.2684375 0.11408203 1.2684375 0.11408203 2.5625 0.23046875 C5.32539703 0.89019897 6.86264777 1.97694982 9 3.8125 C5.24600202 5.0164337 1.66782588 4.91127617 -2.25 4.875 C-3.51328125 4.86597656 -4.7765625 4.85695312 -6.078125 4.84765625 C-7.04234375 4.83605469 -8.0065625 4.82445312 -9 4.8125 C-9 3.8225 -9 2.8325 -9 1.8125 C-5.79515577 -0.10892281 -3.69760815 -0.38892525 0 0 Z " fill="#4D5738" transform="translate(26,139.1875)"/>
<path d="M0 0 C0.33 0.99 0.66 1.98 1 3 C4.465 2.505 4.465 2.505 8 2 C7.13647065 5.53262006 6.50173832 7.55401038 3.75 10 C0.15646574 11.30673973 -1.57550211 10.51315023 -5 9 C-4.360625 8.071875 -3.72125 7.14375 -3.0625 6.1875 C-0.91377907 3.15780057 -0.91377907 3.15780057 0 0 Z " fill="#535F3D" transform="translate(241,151)"/>
<path d="M0 0 C2.86207152 1.28299758 5.0245088 2.530636 7 5 C7 5.99 7 6.98 7 8 C3.69564916 9.12377697 1.9493138 8.89554742 -1.25 7.5625 C-1.95640625 7.27503906 -2.6628125 6.98757812 -3.390625 6.69140625 C-3.92171875 6.46324219 -4.4528125 6.23507813 -5 6 C-4.67 4.68 -4.34 3.36 -4 2 C-2.68 2 -1.36 2 0 2 C0 1.34 0 0.68 0 0 Z " fill="#616B4C" transform="translate(231,60)"/>
<path d="M0 0 C0.33 0 0.66 0 1 0 C1 1.98 1 3.96 1 6 C1.99 6 2.98 6 4 6 C3.67 4.68 3.34 3.36 3 2 C3.99 2 4.98 2 6 2 C7.35439668 4.70879335 7.06501451 7.00933268 7 10 C6.01 10.495 6.01 10.495 5 11 C5.33 11.66 5.66 12.32 6 13 C3.69 13 1.38 13 -1 13 C-0.67 8.71 -0.34 4.42 0 0 Z " fill="#4D5D33" transform="translate(36,147)"/>
<path d="M0 0 C1.32 1.65 2.64 3.3 4 5 C3.01 5.495 3.01 5.495 2 6 C2.33 6.99 2.66 7.98 3 9 C3.66 9.165 4.32 9.33 5 9.5 C5.66 9.665 6.32 9.83 7 10 C8 13 8 13 7.0625 15.1875 C6.5365625 16.0846875 6.5365625 16.0846875 6 17 C5.34 17 4.68 17 4 17 C4 16.01 4 15.02 4 14 C2.35 14 0.7 14 -1 14 C-0.67 9.38 -0.34 4.76 0 0 Z " fill="#4D5B34" transform="translate(243,140)"/>
<path d="M0 0 C0.99 0.66 1.98 1.32 3 2 C2.67 2.66 2.34 3.32 2 4 C2.66 4 3.32 4 4 4 C4 4.66 4 5.32 4 6 C-1.36991485 9.05108798 -1.36991485 9.05108798 -4.3125 8.8125 C-6 8 -6 8 -7 6 C-7.66 5.67 -8.32 5.34 -9 5 C-6.03 3.35 -3.06 1.7 0 0 Z " fill="#636E4B" transform="translate(109,63)"/>
<path d="M0 0 C0.94324258 4.31196609 1.48041715 8.62065881 2 13 C0.35 12.67 -1.3 12.34 -3 12 C-2.67 10.68 -2.34 9.36 -2 8 C-3.65 8 -5.3 8 -7 8 C-6.44414399 4.1090079 -4.34122117 0 0 0 Z " fill="#60684C" transform="translate(196,8)"/>
<path d="M0 0 C3.57104439 1.87949705 5.54744301 3.17053157 7 7 C7.66 7 8.32 7 9 7 C9.33 8.32 9.66 9.64 10 11 C8.68 10.67 7.36 10.34 6 10 C5.67 10.66 5.34 11.32 5 12 C3.96386967 10.76265016 2.94652198 9.50955363 1.9375 8.25 C1.36902344 7.55390625 0.80054687 6.8578125 0.21484375 6.140625 C-1 4 -1 4 -0.68359375 1.734375 C-0.45800781 1.16203125 -0.23242188 0.5896875 0 0 Z " fill="#626A4D" transform="translate(105,43)"/>
<path d="M0 0 C1.32 0.33 2.64 0.66 4 1 C4 4.3 4 7.6 4 11 C1 10 1 10 -1 8 C-1.33 8.99 -1.66 9.98 -2 11 C-2.66 11 -3.32 11 -4 11 C-3.56179109 6.44262737 -3.14958831 3.42346555 0 0 Z " fill="#536138" transform="translate(66,136)"/>
<path d="M0 0 C1.5625 1.1875 1.5625 1.1875 3 3 C2.875 5.5625 2.875 5.5625 2 8 C-1.4352048 10.29013653 -2.985331 10.17842973 -7 10 C-6.67 8.68 -6.34 7.36 -6 6 C-5.34 6 -4.68 6 -4 6 C-4 5.34 -4 4.68 -4 4 C-3.34 4 -2.68 4 -2 4 C-2 3.34 -2 2.68 -2 2 C-1.34 2 -0.68 2 0 2 C0 1.34 0 0.68 0 0 Z " fill="#5C6447" transform="translate(192,20)"/>
<path d="M0 0 C0.33 0.99 0.66 1.98 1 3 C1.66 3.66 2.32 4.32 3 5 C-0.82989106 6.80230168 -3.78121808 7.19622241 -8 7 C-8 5.68 -8 4.36 -8 3 C-5.13904018 0.13904018 -4.20340434 0 0 0 Z " fill="#5F6848" transform="translate(218,61)"/>
<path d="M0 0 C0.33 0.99 0.66 1.98 1 3 C1.99 3 2.98 3 4 3 C4.33 5.97 4.66 8.94 5 12 C4.01 12.495 4.01 12.495 3 13 C2.34 11.02 1.68 9.04 1 7 C-0.32 7.33 -1.64 7.66 -3 8 C-3.33 7.01 -3.66 6.02 -4 5 C-4.66 4.67 -5.32 4.34 -6 4 C-3.94766315 1.7522025 -2.99332739 0.9977758 0 0 Z " fill="#4A572E" transform="translate(201,8)"/>
<path d="M0 0 C0.99 0.495 0.99 0.495 2 1 C2 4.3 2 7.6 2 11 C3.32 9.68 4.64 8.36 6 7 C6.66 7.33 7.32 7.66 8 8 C7.67 10.31 7.34 12.62 7 15 C6.34 15 5.68 15 5 15 C4.67 15.66 4.34 16.32 4 17 C3.67 16.34 3.34 15.68 3 15 C2.34 15 1.68 15 1 15 C0.67 15.66 0.34 16.32 0 17 C0 11.39 0 5.78 0 0 Z " fill="#4D5B35" transform="translate(262,131)"/>
<path d="M0 0 C0 1.32 0 2.64 0 4 C1.32 4.33 2.64 4.66 4 5 C3.67 5.66 3.34 6.32 3 7 C-1.78478822 7.09764874 -6.27685687 6.77112541 -11 6 C-11 5.34 -11 4.68 -11 4 C-10.01 4 -9.02 4 -8 4 C-8 3.34 -8 2.68 -8 2 C-5.44123378 -0.55876622 -3.37797483 -1.68898741 0 0 Z " fill="#747C5D" transform="translate(110,159)"/>
<path d="M0 0 C3.96 0.99 3.96 0.99 8 2 C7.25 4.4375 7.25 4.4375 6 7 C3.875 7.8125 3.875 7.8125 2 8 C1.67 7.01 1.34 6.02 1 5 C0.01 5 -0.98 5 -2 5 C-1.34 3.35 -0.68 1.7 0 0 Z " fill="#66714F" transform="translate(282,120)"/>
<path d="M0 0 C0 0.33 0 0.66 0 1 C-3.3 1.33 -6.6 1.66 -10 2 C-10.33 2.99 -10.66 3.98 -11 5 C-15.75 4.125 -15.75 4.125 -18 3 C-18 2.01 -18 1.02 -18 0 C-12.83047166 -2.58476417 -5.51353963 -0.93847483 0 0 Z " fill="#6D7758" transform="translate(49,120)"/>
<path d="M0 0 C0.33 0.99 0.66 1.98 1 3 C0.34 3 -0.32 3 -1 3 C-1 4.32 -1 5.64 -1 7 C-0.34 7.33 0.32 7.66 1 8 C-1.31 9.32 -3.62 10.64 -6 12 C-6.33 10.35 -6.66 8.7 -7 7 C-5.68 6.67 -4.36 6.34 -3 6 C-3.99 5.34 -4.98 4.68 -6 4 C-4.02 2.68 -2.04 1.36 0 0 Z " fill="#5F6B47" transform="translate(124,53)"/>
<path d="M0 0 C0.33 0 0.66 0 1 0 C1.33 4.29 1.66 8.58 2 13 C3.32 13.33 4.64 13.66 6 14 C5.01 14.66 4.02 15.32 3 16 C1.69951159 18.60097682 1.43528578 21.13955062 1 24 C0.67 24 0.34 24 0 24 C0 22.02 0 20.04 0 18 C-0.66 18 -1.32 18 -2 18 C-1.34 12.06 -0.68 6.12 0 0 Z " fill="#6F7B5B" transform="translate(15,126)"/>
<path d="M0 0 C2.31 0.66 4.62 1.32 7 2 C6.01 2.495 6.01 2.495 5 3 C4.5316735 5.58605332 4.5316735 5.58605332 4.375 8.5625 C4.26285156 10.08037109 4.26285156 10.08037109 4.1484375 11.62890625 C4.09945312 12.41136719 4.05046875 13.19382812 4 14 C3.01 13.67 2.02 13.34 1 13 C1 9.7 1 6.4 1 3 C0.01 3.33 -0.98 3.66 -2 4 C-2 3.34 -2 2.68 -2 2 C-1.34 2 -0.68 2 0 2 C0 1.34 0 0.68 0 0 Z " fill="#4C573A" transform="translate(172,43)"/>
<path d="M0 0 C-0.125 1.875 -0.125 1.875 -1 4 C-3.8125 5.1875 -3.8125 5.1875 -7 6 C-8.175625 6.309375 -8.175625 6.309375 -9.375 6.625 C-9.91125 6.74875 -10.4475 6.8725 -11 7 C-10.61502006 4.76711635 -10.10506663 3.16343698 -8.875 1.25 C-6.00254099 -0.66497267 -3.35516417 -0.18991495 0 0 Z " fill="#5B6546" transform="translate(89,41)"/>
<path d="M0 0 C1.65 1.65 3.3 3.3 5 5 C4.02617818 7.51570636 3.53848865 8.73944098 1.0625 9.9375 C-1 10 -1 10 -2.75 8.5625 C-3.1625 8.046875 -3.575 7.53125 -4 7 C-3.67 6.34 -3.34 5.68 -3 5 C-2.34 5 -1.68 5 -1 5 C-0.67 3.35 -0.34 1.7 0 0 Z " fill="#64704B" transform="translate(217,154)"/>
<path d="M0 0 C2.96404536 3.36823336 4.04899816 6.64124157 5 11 C4.67 11.99 4.34 12.98 4 14 C2.68 13.67 1.36 13.34 0 13 C-0.66 10.69 -1.32 8.38 -2 6 C-1.34 5.34 -0.68 4.68 0 4 C0 2.68 0 1.36 0 0 Z " fill="#676D53" transform="translate(78,23)"/>
<path d="M0 0 C0 0.99 0 1.98 0 3 C-0.66 3 -1.32 3 -2 3 C-2.33 4.32 -2.66 5.64 -3 7 C-5.64 7 -8.28 7 -11 7 C-10 4 -10 4 -7.71484375 2.83203125 C-6.79832031 2.49558594 -5.88179687 2.15914063 -4.9375 1.8125 C-4.01839844 1.46832031 -3.09929687 1.12414062 -2.15234375 0.76953125 C-1.44207031 0.51558594 -0.73179687 0.26164062 0 0 Z " fill="#586247" transform="translate(153,96)"/>
<path d="M0 0 C0.66 0.33 1.32 0.66 2 1 C2 1.66 2 2.32 2 3 C2.66 3 3.32 3 4 3 C3 5 3 5 2 6 C3.32 6.33 4.64 6.66 6 7 C3.4345406 9.5654594 1.52313332 9.54046087 -2 10 C-2.33 7.36 -2.66 4.72 -3 2 C-2.01 2 -1.02 2 0 2 C0 1.34 0 0.68 0 0 Z " fill="#4F5B36" transform="translate(195,43)"/>
<path d="M0 0 C3 3.75 3 3.75 3 6 C3.33 6.66 3.66 7.32 4 8 C0.67465243 9.10844919 -1.62182575 8.84454356 -5 8 C-5 7.01 -5 6.02 -5 5 C-4.34 5 -3.68 5 -3 5 C-3 4.34 -3 3.68 -3 3 C-2.34 3 -1.68 3 -1 3 C-0.67 2.01 -0.34 1.02 0 0 Z " fill="#5B6648" transform="translate(191,33)"/>
<path d="M0 0 C1.59293738 3.03171953 2.32925059 5.64625294 3 9 C3.99083967 11.23408113 3.99083967 11.23408113 5 13 C2.35261084 14.4606285 1.10551666 15 -2 15 C-2 14.34 -2 13.68 -2 13 C-1.01 12.67 -0.02 12.34 1 12 C0.34 11.01 -0.32 10.02 -1 9 C-0.9765625 6.73828125 -0.9765625 6.73828125 -0.625 4.3125 C-0.51414062 3.50425781 -0.40328125 2.69601563 -0.2890625 1.86328125 C-0.19367187 1.24839844 -0.09828125 0.63351563 0 0 Z " fill="#747B5F" transform="translate(15,151)"/>
<path d="M0 0 C5.94 0 11.88 0 18 0 C18 0.33 18 0.66 18 1 C12.06 1.495 12.06 1.495 6 2 C5.34 4.31 4.68 6.62 4 9 C3.67 9 3.34 9 3 9 C3 7.35 3 5.7 3 4 C2.01 3.67 1.02 3.34 0 3 C0 2.01 0 1.02 0 0 Z " fill="#7E8868" transform="translate(56,120)"/>
<path d="M0 0 C0.33 0 0.66 0 1 0 C1 4.29 1 8.58 1 13 C-0.65 13 -2.3 13 -4 13 C-4 9.7 -4 6.4 -4 3 C-3.01 3 -2.02 3 -1 3 C-1 5.31 -1 7.62 -1 10 C-0.67 6.7 -0.34 3.4 0 0 Z " fill="#687350" transform="translate(226,67)"/>
<path d="M0 0 C0.66 0.33 1.32 0.66 2 1 C1.67 1.99 1.34 2.98 1 4 C1.33 4.33 1.66 4.66 2 5 C2.66 3.68 3.32 2.36 4 1 C4 3.64 4 6.28 4 9 C2.02 9.66 0.04 10.32 -2 11 C-2 7.7 -2 4.4 -2 1 C-1.34 0.67 -0.68 0.34 0 0 Z " fill="#6B7353" transform="translate(200,50)"/>
<path d="M0 0 C0.66 0.33 1.32 0.66 2 1 C2 1.66 2 2.32 2 3 C2.66 3 3.32 3 4 3 C4 3.66 4 4.32 4 5 C4.66 5.33 5.32 5.66 6 6 C2.88228073 7.60339848 1.60988311 8.18974141 -1.8125 7.125 C-2.534375 6.75375 -3.25625 6.3825 -4 6 C-3.67 4.35 -3.34 2.7 -3 1 C-2.01 0.67 -1.02 0.34 0 0 Z " fill="#60684C" transform="translate(181,41)"/>
<path d="M0 0 C4.76350585 0.71452588 9.34201396 1.79534844 14 3 C10.35176961 5.33486745 7.25589957 5.30399283 3 5 C0.5625 4 0.5625 4 -1 3 C-0.67 2.01 -0.34 1.02 0 0 Z " fill="#707658" transform="translate(32,161)"/>
<path d="M0 0 C0 0.99 0 1.98 0 3 C-4.75 5 -4.75 5 -7 5 C-6.67 3.68 -6.34 2.36 -6 1 C-9.63 1 -13.26 1 -17 1 C-17 0.67 -17 0.34 -17 0 C-5.47835991 -1.33257403 -5.47835991 -1.33257403 0 0 Z " fill="#757D60" transform="translate(99,120)"/>
<path d="M0 0 C0.33 0.99 0.66 1.98 1 3 C2.32 3 3.64 3 5 3 C5 3.66 5 4.32 5 5 C-1.625 7.125 -1.625 7.125 -5 6 C-4.1875 3.5625 -4.1875 3.5625 -3 1 C-2.01 0.67 -1.02 0.34 0 0 Z " fill="#535F3E" transform="translate(102,68)"/>
<path d="M0 0 C1.60379341 -0.05416188 3.20811406 -0.09286638 4.8125 -0.125 C5.70582031 -0.14820313 6.59914063 -0.17140625 7.51953125 -0.1953125 C10 0 10 0 13 2 C4.57142857 4.42857143 4.57142857 4.42857143 0 3 C0 2.01 0 1.02 0 0 Z " fill="#4F563A" transform="translate(42,61)"/>
<path d="M0 0 C4.54805635 -0.17835515 7.8794254 0.00214565 12 2 C11.01 2.495 11.01 2.495 10 3 C9.34 2.67 8.68 2.34 8 2 C7.34 3.98 6.68 5.96 6 8 C5.38125 7.195625 4.7625 6.39125 4.125 5.5625 C2.25835959 2.96125481 2.25835959 2.96125481 0 2 C0 1.34 0 0.68 0 0 Z " fill="#515E3C" transform="translate(123,121)"/>
<path d="M0 0 C0.042721 1.66611905 0.04063832 3.33382885 0 5 C-1 6 -1 6 -4.0625 6.0625 C-5.031875 6.041875 -6.00125 6.02125 -7 6 C-7 5.01 -7 4.02 -7 3 C-7.33 2.34 -7.66 1.68 -8 1 C-5.07175348 0.02391783 -3.04386724 -0.08226668 0 0 Z " fill="#515C3A" transform="translate(90,70)"/>
<path d="M0 0 C0.33 3.63 0.66 7.26 1 11 C0.34 11 -0.32 11 -1 11 C-1.33 10.67 -1.66 10.34 -2 10 C-2.99 10.495 -2.99 10.495 -4 11 C-4.08096803 9.54257537 -4.13917774 8.08387193 -4.1875 6.625 C-4.22230469 5.81289062 -4.25710937 5.00078125 -4.29296875 4.1640625 C-4.19628906 3.44992188 -4.09960938 2.73578125 -4 2 C-1 0 -1 0 0 0 Z " fill="#4D563A" transform="translate(71,61)"/>
<path d="M0 0 C0.93423645 3.01031744 1.04449911 3.86650268 0 7 C-0.99 7.495 -0.99 7.495 -2 8 C-1.01 9.485 -1.01 9.485 0 11 C-0.375 13.1875 -0.375 13.1875 -1 15 C-1.99 14.67 -2.98 14.34 -4 14 C-3.34 14 -2.68 14 -2 14 C-2 13.01 -2 12.02 -2 11 C-3.32 11 -4.64 11 -6 11 C-6.33 10.01 -6.66 9.02 -7 8 C-6.01 8 -5.02 8 -4 8 C-4 7.34 -4 6.68 -4 6 C-3.34 6 -2.68 6 -2 6 C-1.34 4.02 -0.68 2.04 0 0 Z " fill="#687153" transform="translate(220,34)"/>
<path d="M0 0 C0.99 0 1.98 0 3 0 C3.50615298 1.26839526 4.00469099 2.53983102 4.5 3.8125 C4.91765625 4.87404297 4.91765625 4.87404297 5.34375 5.95703125 C6 8 6 8 6 11 C5.34 10.67 4.68 10.34 4 10 C4 9.01 4 8.02 4 7 C2.35 6.67 0.7 6.34 -1 6 C-0.67 4.02 -0.34 2.04 0 0 Z M0 7 C2 8 2 8 2 8 Z " fill="#4E5A3C" transform="translate(173,20)"/>
<path d="M0 0 C0.33 0.99 0.66 1.98 1 3 C1.59167969 2.98839844 2.18335937 2.97679687 2.79296875 2.96484375 C7.00231785 2.91677614 10.8922333 2.93993117 15 4 C15 4.33 15 4.66 15 5 C13.10507254 5.19644384 11.20899097 5.38177288 9.3125 5.5625 C7.72888672 5.71912109 7.72888672 5.71912109 6.11328125 5.87890625 C3.18573914 5.99277552 0.82868856 5.70848415 -2 5 C-2 3.68 -2 2.36 -2 1 C-1.34 0.67 -0.68 0.34 0 0 Z " fill="#757C5E" transform="translate(83,160)"/>
<path d="M0 0 C1.32 0 2.64 0 4 0 C3.67 2.64 3.34 5.28 3 8 C2.34 8 1.68 8 1 8 C0.01 8.66 -0.98 9.32 -2 10 C-1.34 6.7 -0.68 3.4 0 0 Z " fill="#61674E" transform="translate(101,16)"/>
<path d="M0 0 C0.99 0.99 1.98 1.98 3 3 C-0.71429898 4.1161656 -4.39161508 4.3124195 -8.25 4.5625 C-9.51328125 4.64628906 -10.7765625 4.73007813 -12.078125 4.81640625 C-13.04234375 4.87699219 -14.0065625 4.93757812 -15 5 C-15 4.34 -15 3.68 -15 3 C-11.68929162 1.99890485 -8.69915231 1.89643866 -5.25 1.9375 C-4.26515625 1.94652344 -3.2803125 1.95554688 -2.265625 1.96484375 C-1.14414063 1.98224609 -1.14414063 1.98224609 0 2 C0 1.34 0 0.68 0 0 Z " fill="#73785C" transform="translate(185,161)"/>
<path d="M0 0 C2 3 2 3 2 6 C3.98 5.67 5.96 5.34 8 5 C8 5.66 8 6.32 8 7 C8.66 7.33 9.32 7.66 10 8 C9.34 8 8.68 8 8 8 C7.67 8.66 7.34 9.32 7 10 C4.6875 10 4.6875 10 2 9 C0.61706907 6.44481903 -0.21791649 3.79133871 -1 1 C-0.67 0.67 -0.34 0.34 0 0 Z " fill="#6C7553" transform="translate(271,139)"/>
<path d="M0 0 C0 0.99 0 1.98 0 3 C0.66 3.66 1.32 4.32 2 5 C-0.90600261 6.25664978 -2.79604584 7 -6 7 C-6.33 6.01 -6.66 5.02 -7 4 C-2.25 0 -2.25 0 0 0 Z " fill="#676E51" transform="translate(89,97)"/>
<path d="M0 0 C2.86724686 0.57344937 3.8614515 0.8614515 6 3 C5.34 3 4.68 3 4 3 C4 3.99 4 4.98 4 6 C1.625 6.625 1.625 6.625 -1 7 C-1.66 6.34 -2.32 5.68 -3 5 C-2.34 5 -1.68 5 -1 5 C-0.67 3.35 -0.34 1.7 0 0 Z " fill="#5C6946" transform="translate(235,83)"/>
<path d="M0 0 C2.4375 1.25 2.4375 1.25 3.4375 4.25 C1.0625 5.3125 1.0625 5.3125 -1.5625 6.25 C-2.2225 5.92 -2.8825 5.59 -3.5625 5.25 C-4.1875 2.6875 -4.1875 2.6875 -4.5625 0.25 C-2.5625 -0.75 -2.5625 -0.75 0 0 Z " fill="#58633E" transform="translate(114.5625,61.75)"/>
<path d="M0 0 C1.98 0.495 1.98 0.495 4 1 C4.66 3.31 5.32 5.62 6 8 C3.03824877 7.38722388 1.61941217 6.74627478 -1 5 C-0.67 3.35 -0.34 1.7 0 0 Z " fill="#636C4E" transform="translate(222,28)"/>
<path d="M0 0 C0.33 0.99 0.66 1.98 1 3 C4.465 2.505 4.465 2.505 8 2 C7.39816251 4.02045442 6.72693904 6.02111039 6 8 C5.01 8.495 5.01 8.495 4 9 C1.9754262 7.06745228 0.57894208 5.36841312 -1 3 C-0.67 2.01 -0.34 1.02 0 0 Z " fill="#616C46" transform="translate(241,151)"/>
<path d="M0 0 C0.33 0.66 0.66 1.32 1 2 C3.31 2 5.62 2 8 2 C8.33 2.99 8.66 3.98 9 5 C8.34 5.66 7.68 6.32 7 7 C7 6.01 7 5.02 7 4 C6.34 4.66 5.68 5.32 5 6 C3 6 1 6 -1 6 C-0.67 4.02 -0.34 2.04 0 0 Z " fill="#4B5A32" transform="translate(61,132)"/>
<path d="M0 0 C2.31 0.33 4.62 0.66 7 1 C7 2.65 7 4.3 7 6 C4.625 5.8125 4.625 5.8125 2 5 C0.6875 2.4375 0.6875 2.4375 0 0 Z " fill="#535C3F" transform="translate(98,41)"/>
<path d="M0 0 C2.475 0.99 2.475 0.99 5 2 C4.67 3.32 4.34 4.64 4 6 C1.03 5.505 1.03 5.505 -2 5 C-1.125 1.125 -1.125 1.125 0 0 Z " fill="#4C5935" transform="translate(113,86)"/>
<path d="M0 0 C0.66 0.66 1.32 1.32 2 2 C1.9375 4.5 1.9375 4.5 1 7 C-1.5625 8.3125 -1.5625 8.3125 -4 9 C-4.25 6.1875 -4.25 6.1875 -4 3 C-2 1.125 -2 1.125 0 0 Z " fill="#5B6247" transform="translate(71,54)"/>
<path d="M0 0 C1.32 1.32 2.64 2.64 4 4 C3.67 4.99 3.34 5.98 3 7 C1.35 6.67 -0.3 6.34 -2 6 C-2.33 6.66 -2.66 7.32 -3 8 C-3.33 7.01 -3.66 6.02 -4 5 C-3.34 4.01 -2.68 3.02 -2 2 C-1.34 2 -0.68 2 0 2 C0 1.34 0 0.68 0 0 Z " fill="#626A4C" transform="translate(232,50)"/>
<path d="M0 0 C0.66 0.33 1.32 0.66 2 1 C2 1.66 2 2.32 2 3 C2.99 3 3.98 3 5 3 C4.25 4.9375 4.25 4.9375 3 7 C0.875 7.75 0.875 7.75 -1 8 C-1.04241723 5.66705225 -1.04092937 3.33297433 -1 1 C-0.67 0.67 -0.34 0.34 0 0 Z " fill="#636B50" transform="translate(157,124)"/>
<path d="M0 0 C0.99 0 1.98 0 3 0 C3.625 2.375 3.625 2.375 4 5 C3.34 5.66 2.68 6.32 2 7 C0.68 7 -0.64 7 -2 7 C-2 5.68 -2 4.36 -2 3 C-1.34 3 -0.68 3 0 3 C0 2.01 0 1.02 0 0 Z " fill="#525C3C" transform="translate(125,53)"/>
<path d="M0 0 C0 0.99 0 1.98 0 3 C-1.33333333 4.33333333 -2.66666667 5.66666667 -4 7 C-4.99 6.01 -5.98 5.02 -7 4 C-6.67 3.01 -6.34 2.02 -6 1 C-4 0 -4 0 0 0 Z " fill="#656E4F" transform="translate(222,120)"/>
<path d="M0 0 C0.33 0 0.66 0 1 0 C1 2.64 1 5.28 1 8 C2.32 8.33 3.64 8.66 5 9 C4.67 9.66 4.34 10.32 4 11 C2.02 11 0.04 11 -2 11 C-2.33 10.34 -2.66 9.68 -3 9 C-2.34 9 -1.68 9 -1 9 C-0.67 6.03 -0.34 3.06 0 0 Z " fill="#6E7859" transform="translate(59,152)"/>
<path d="M0 0 C0.66 0 1.32 0 2 0 C2 4.29 2 8.58 2 13 C1.34 13 0.68 13 0 13 C-0.19397476 11.02145742 -0.38001321 9.0421352 -0.5625 7.0625 C-0.66691406 5.96035156 -0.77132812 4.85820312 -0.87890625 3.72265625 C-0.91886719 2.82417969 -0.95882812 1.92570313 -1 1 C-0.67 0.67 -0.34 0.34 0 0 Z " fill="#3C4724" transform="translate(173,131)"/>
<path d="M0 0 C0.33 0.66 0.66 1.32 1 2 C3.52733235 2.65555119 3.52733235 2.65555119 6 3 C6 3.33 6 3.66 6 4 C2.37 4 -1.26 4 -5 4 C-5.33 3.01 -5.66 2.02 -6 1 C-4 0 -4 0 0 0 Z " fill="#788062" transform="translate(29,100)"/>
<path d="M0 0 C0.99 0 1.98 0 3 0 C5.1875 3 5.1875 3 7 6 C5.02 6.99 5.02 6.99 3 8 C2.01 6.35 1.02 4.7 0 3 C0.66 3 1.32 3 2 3 C2 2.34 2 1.68 2 1 C1.34 0.67 0.68 0.34 0 0 Z " fill="#676D51" transform="translate(194,125)"/>
<path d="M0 0 C0.33 1.98 0.66 3.96 1 6 C0.01 6.33 -0.98 6.66 -2 7 C-2.33 6.01 -2.66 5.02 -3 4 C-4.99665314 2.31461399 -4.99665314 2.31461399 -7 1 C-4.50935112 0.31292445 -2.62113708 0 0 0 Z " fill="#596342" transform="translate(120,84)"/>
<path d="M0 0 C2.125 0.375 2.125 0.375 4 1 C4 2.65 4 4.3 4 6 C2.35 6 0.7 6 -1 6 C-1.625 4.125 -1.625 4.125 -2 2 C-1.34 1.34 -0.68 0.68 0 0 Z " fill="#697052" transform="translate(167,32)"/>
<path d="M0 0 C0.66 0 1.32 0 2 0 C2 0.66 2 1.32 2 2 C2.66 2 3.32 2 4 2 C4 2.66 4 3.32 4 4 C4.66 4 5.32 4 6 4 C6 4.99 6 5.98 6 7 C1.125 6.125 1.125 6.125 0 5 C-0.04063832 3.33382885 -0.042721 1.66611905 0 0 Z " fill="#535D40" transform="translate(205,9)"/>
<path d="M0 0 C0.33 0 0.66 0 1 0 C1 4.29 1 8.58 1 13 C-2 10 -2 10 -2.109375 7.7734375 C-1.99078125 6.98195312 -1.8721875 6.19046875 -1.75 5.375 C-1.58757812 4.18003906 -1.58757812 4.18003906 -1.421875 2.9609375 C-1 1 -1 1 0 0 Z " fill="#454F2C" transform="translate(174,145)"/>
<path d="M0 0 C2.4375 0.75 2.4375 0.75 5 2 C5.8125 4.125 5.8125 4.125 6 6 C4.35 5.67 2.7 5.34 1 5 C0.67 3.35 0.34 1.7 0 0 Z " fill="#4E5738" transform="translate(62,41)"/>
<path d="M0 0 C1.32 0.33 2.64 0.66 4 1 C4.33 3.64 4.66 6.28 5 9 C3.35 8.67 1.7 8.34 0 8 C0.185625 7.236875 0.37125 6.47375 0.5625 5.6875 C1.22819173 2.91032625 1.22819173 2.91032625 0 0 Z " fill="#697552" transform="translate(193,12)"/>
<path d="M0 0 C0.99 0.33 1.98 0.66 3 1 C3.625 3.375 3.625 3.375 4 6 C3.34 6.66 2.68 7.32 2 8 C2 7.34 2 6.68 2 6 C1.01 5.67 0.02 5.34 -1 5 C-0.67 3.35 -0.34 1.7 0 0 Z " fill="#62694F" transform="translate(156,151)"/>
<path d="M0 0 C3.63 0.33 7.26 0.66 11 1 C8.33333333 2.33333333 5.66666667 3.66666667 3 5 C2.01 4.34 1.02 3.68 0 3 C0 2.01 0 1.02 0 0 Z " fill="#5C6747" transform="translate(81,120)"/>
<path d="M0 0 C0.66 0.66 1.32 1.32 2 2 C0.68 3.32 -0.64 4.64 -2 6 C-4.475 5.01 -4.475 5.01 -7 4 C-4.61426621 2.10786631 -2.92824652 0.97608217 0 0 Z " fill="#63704E" transform="translate(161,92)"/>
<path d="M0 0 C0.99 0.33 1.98 0.66 3 1 C2.67 1.99 2.34 2.98 2 4 C3.32 4.33 4.64 4.66 6 5 C3 6 3 6 -0.125 4.6875 C-3 3 -3 3 -4 1 C-2.68 1.33 -1.36 1.66 0 2 C0 1.34 0 0.68 0 0 Z " fill="#515A3D" transform="translate(231,63)"/>
<path d="M0 0 C0.66 0.33 1.32 0.66 2 1 C2 4.96 2 8.92 2 13 C1.01 12.67 0.02 12.34 -1 12 C-1.08159574 7.83861737 -0.98248524 4.0527516 0 0 Z " fill="#7B8360" transform="translate(136,147)"/>
<path d="M0 0 C-2.93828597 2.50298434 -5.17902761 3.46930939 -9 4 C-8.625 2.0625 -8.625 2.0625 -8 0 C-5.13822943 -1.43088528 -3.06624227 -0.59991697 0 0 Z " fill="#616E48" transform="translate(268,98)"/>
<path d="M0 0 C0.33 0.66 0.66 1.32 1 2 C1.66 2 2.32 2 3 2 C3.33 3.32 3.66 4.64 4 6 C2.68 5.67 1.36 5.34 0 5 C-0.33 5.66 -0.66 6.32 -1 7 C-1.99 5.35 -2.98 3.7 -4 2 C-3.01 2 -2.02 2 -1 2 C-0.67 1.34 -0.34 0.68 0 0 Z " fill="#747D5F" transform="translate(111,48)"/>
<path d="M0 0 C2.1875 0.3125 2.1875 0.3125 4 1 C2.25 4.875 2.25 4.875 0 6 C0 5.34 0 4.68 0 4 C-0.99 3.67 -1.98 3.34 -3 3 C-1.75 1.4375 -1.75 1.4375 0 0 Z " fill="#666C54" transform="translate(125,29)"/>
<path d="M0 0 C1.77706209 2.66559313 2.87548273 5.0280615 4 8 C1 10 1 10 -1 11 C-1.125 6.25 -1.125 6.25 0 4 C0 2.68 0 1.36 0 0 Z " fill="#667051" transform="translate(205,15)"/>
<path d="M0 0 C1.5625 1.75 1.5625 1.75 3 4 C2.6875 6.25 2.6875 6.25 2 8 C0.68 8.33 -0.64 8.66 -2 9 C-2.20140476 5.37471432 -1.85776765 3.13498292 0 0 Z " fill="#626C49" transform="translate(203,3)"/>
<path d="M0 0 C0.33 0 0.66 0 1 0 C1 3.3 1 6.6 1 10 C0.01 9.67 -0.98 9.34 -2 9 C-2.33 6.69 -2.66 4.38 -3 2 C-2.01 2.495 -2.01 2.495 -1 3 C-0.67 2.01 -0.34 1.02 0 0 Z " fill="#66704E" transform="translate(69,137)"/>
<path d="M0 0 C2.76223278 2.76223278 2.57856291 5.20706617 3 9 C2.67 8.01 2.34 7.02 2 6 C-0.97 5.505 -0.97 5.505 -4 5 C-3.67 3.68 -3.34 2.36 -3 1 C-2.01 1.33 -1.02 1.66 0 2 C0 1.34 0 0.68 0 0 Z " fill="#4D5932" transform="translate(210,130)"/>
<path d="M0 0 C1.32 0.66 2.64 1.32 4 2 C4 3.32 4 4.64 4 6 C1.03 5.505 1.03 5.505 -2 5 C-1.34 3.35 -0.68 1.7 0 0 Z " fill="#525E3D" transform="translate(282,120)"/>
<path d="M0 0 C-0.185625 0.598125 -0.37125 1.19625 -0.5625 1.8125 C-1.22093687 4.16408762 -1.22093687 4.16408762 0 7 C-3 6 -3 6 -5 3 C-5.99 2.34 -6.98 1.68 -8 1 C-5.23735711 0.40267181 -2.83967231 0 0 0 Z " fill="#636E4D" transform="translate(113,86)"/>
<path d="M0 0 C2.64 0.66 5.28 1.32 8 2 C7.67 2.66 7.34 3.32 7 4 C4.36 3.67 1.72 3.34 -1 3 C-0.67 2.01 -0.34 1.02 0 0 Z " fill="#636E4D" transform="translate(209,75)"/>
<path d="M0 0 C1.32 0.99 2.64 1.98 4 3 C3.67 3.33 3.34 3.66 3 4 C3.66 4.66 4.32 5.32 5 6 C2.625 6.625 2.625 6.625 0 7 C-0.66 6.34 -1.32 5.68 -2 5 C-1.34 4.34 -0.68 3.68 0 3 C-0.66 2.34 -1.32 1.68 -2 1 C-1.34 0.67 -0.68 0.34 0 0 Z " fill="#5E6948" transform="translate(81,71)"/>
<path d="M0 0 C1.875 0.3125 1.875 0.3125 4 1 C4.66 1.99 5.32 2.98 6 4 C5 5 5 5 2.4375 5.0625 C1.2309375 5.0315625 1.2309375 5.0315625 0 5 C0 3.35 0 1.7 0 0 Z " fill="#5B654A" transform="translate(209,25)"/>
<path d="M0 0 C1.32 0.66 2.64 1.32 4 2 C3.67 2.33 3.34 2.66 3 3 C3.66 3.66 4.32 4.32 5 5 C1.625 5.625 1.625 5.625 -2 6 C-2.66 5.34 -3.32 4.68 -4 4 C-3.01 3.67 -2.02 3.34 -1 3 C-0.67 2.01 -0.34 1.02 0 0 Z " fill="#767E5C" transform="translate(128,160)"/>
<path d="M0 0 C0.99 0 1.98 0 3 0 C3 0.66 3 1.32 3 2 C4.65 1.34 6.3 0.68 8 0 C8.66 0.66 9.32 1.32 10 2 C8.375 3.125 8.375 3.125 6 4 C2.75 3.125 2.75 3.125 0 2 C0 1.34 0 0.68 0 0 Z " fill="#505939" transform="translate(29,100)"/>
<path d="M0 0 C0.66 0.33 1.32 0.66 2 1 C1 4 1 4 -2 6 C-4.6875 5.625 -4.6875 5.625 -7 5 C-4.702779 3.25728062 -2.40133271 1.60088848 0 0 Z " fill="#636C4D" transform="translate(54,87)"/>
<path d="M0 0 C0.99 0 1.98 0 3 0 C3 1.65 3 3.3 3 5 C1.35 4.67 -0.3 4.34 -2 4 C-1.34 2.68 -0.68 1.36 0 0 Z " fill="#545D3D" transform="translate(211,63)"/>
<path d="M0 0 C1 2 1 2 0.0625 5.125 C-0.288125 6.07375 -0.63875 7.0225 -1 8 C-3.35953094 5.64046906 -3.49141413 4.22104383 -4 1 C-2.68 0.67 -1.36 0.34 0 0 Z " fill="#65714D" transform="translate(215,129)"/>
<path d="M0 0 C0.33 0 0.66 0 1 0 C1 3.3 1 6.6 1 10 C-0.37562854 8.71034824 -1.70766393 7.37310707 -3 6 C-3 5.34 -3 4.68 -3 4 C-2.34 3.67 -1.68 3.34 -1 3 C-0.67 2.01 -0.34 1.02 0 0 Z " fill="#616A48" transform="translate(69,126)"/>
<path d="M0 0 C1.98 0 3.96 0 6 0 C6 0.66 6 1.32 6 2 C5.360625 2.12375 4.72125 2.2475 4.0625 2.375 C3.381875 2.58125 2.70125 2.7875 2 3 C1.67 3.66 1.34 4.32 1 5 C0.34 4.67 -0.32 4.34 -1 4 C-0.67 2.68 -0.34 1.36 0 0 Z " fill="#656E50" transform="translate(69,121)"/>
<path d="M0 0 C0.99 0 1.98 0 3 0 C2.67 1.32 2.34 2.64 2 4 C0.02 4.33 -1.96 4.66 -4 5 C-4.33 4.34 -4.66 3.68 -5 3 C-4.360625 2.87625 -3.72125 2.7525 -3.0625 2.625 C-2.0415625 2.315625 -2.0415625 2.315625 -1 2 C-0.67 1.34 -0.34 0.68 0 0 Z " fill="#4E573A" transform="translate(93,96)"/>
<path d="M0 0 C0.94875 0.350625 1.8975 0.70125 2.875 1.0625 C0.23595629 2.47627341 -2.19620629 3.43490135 -5.125 4.0625 C-5.125 2.7425 -5.125 1.4225 -5.125 0.0625 C-3.125 -0.9375 -3.125 -0.9375 0 0 Z " fill="#616C4B" transform="translate(78.125,76.9375)"/>
<path d="M0 0 C1.98 0.495 1.98 0.495 4 1 C4.33 2.98 4.66 4.96 5 7 C4.01 6.67 3.02 6.34 2 6 C2 5.01 2 4.02 2 3 C1.01 3.33 0.02 3.66 -1 4 C-0.67 2.68 -0.34 1.36 0 0 Z " fill="#4E5734" transform="translate(216,58)"/>
<path d="M0 0 C2.475 0.495 2.475 0.495 5 1 C4.6875 2.9375 4.6875 2.9375 4 5 C3.01 5.33 2.02 5.66 1 6 C0.67 4.02 0.34 2.04 0 0 Z " fill="#566042" transform="translate(111,53)"/>
<path d="M0 0 C0.33 1.32 0.66 2.64 1 4 C0.34 4 -0.32 4 -1 4 C-0.34 5.32 0.32 6.64 1 8 C0.01 7.67 -0.98 7.34 -2 7 C-2 6.01 -2 5.02 -2 4 C-2.99 3.67 -3.98 3.34 -5 3 C-3.35 2.01 -1.7 1.02 0 0 Z " fill="#636D4C" transform="translate(130,49)"/>
<path d="M0 0 C0.99 0.66 1.98 1.32 3 2 C3 2.99 3 3.98 3 5 C0.69 5 -1.62 5 -4 5 C-2.68 3.35 -1.36 1.7 0 0 Z " fill="#606A49" transform="translate(212,36)"/>
<path d="M0 0 C0.66 0.33 1.32 0.66 2 1 C2.75 3.4375 2.75 3.4375 3 6 C2.34 6.66 1.68 7.32 1 8 C-1 6 -1 6 -1.1875 3.4375 C-1 1 -1 1 0 0 Z " fill="#444E31" transform="translate(76,22)"/>
<path d="M0 0 C2.64 0 5.28 0 8 0 C8 0.33 8 0.66 8 1 C6.35 1 4.7 1 3 1 C3 1.66 3 2.32 3 3 C1.02 3.33 -0.96 3.66 -3 4 C-2.34 3.67 -1.68 3.34 -1 3 C-0.67 2.01 -0.34 1.02 0 0 Z " fill="#4C5A36" transform="translate(99,160)"/>
<path d="M0 0 C0 0.99 0 1.98 0 3 C-0.66 3 -1.32 3 -2 3 C-2.33 4.32 -2.66 5.64 -3 7 C-3.66 6.34 -4.32 5.68 -5 5 C-4.67 4.34 -4.34 3.68 -4 3 C-4.66 2.67 -5.32 2.34 -6 2 C-4.02 1.34 -2.04 0.68 0 0 Z " fill="#5F6A4A" transform="translate(153,96)"/>
<path d="M0 0 C2.8992226 0.46761655 3.86675182 0.86675182 6 3 C4.35 3.66 2.7 4.32 1 5 C0.34 3.68 -0.32 2.36 -1 1 C-0.67 0.67 -0.34 0.34 0 0 Z " fill="#72775F" transform="translate(52,34)"/>
<path d="M0 0 C1.65 0 3.3 0 5 0 C5 0.99 5 1.98 5 3 C4.34 3.66 3.68 4.32 3 5 C1.5 3.625 1.5 3.625 0 2 C0 1.34 0 0.68 0 0 Z " fill="#495538" transform="translate(205,23)"/>
<path d="M0 0 C1.32 0.33 2.64 0.66 4 1 C4 2.98 4 4.96 4 7 C2.68 6.67 1.36 6.34 0 6 C0.66 6 1.32 6 2 6 C1.34 4.02 0.68 2.04 0 0 Z " fill="#4A562E" transform="translate(193,20)"/>
<path d="M0 0 C0 1.65 0 3.3 0 5 C-1.65 4.67 -3.3 4.34 -5 4 C-4.67 3.01 -4.34 2.02 -4 1 C-1 0 -1 0 0 0 Z " fill="#71775C" transform="translate(263,160)"/>
<path d="M0 0 C-0.66 0 -1.32 0 -2 0 C-2 0.66 -2 1.32 -2 2 C-5.3 1.67 -8.6 1.34 -12 1 C-12 0.67 -12 0.34 -12 0 C-10.56666979 -0.39063507 -9.12807321 -0.76198474 -7.6875 -1.125 C-6.88699219 -1.33382812 -6.08648437 -1.54265625 -5.26171875 -1.7578125 C-3 -2 -3 -2 0 0 Z " fill="#717C5B" transform="translate(238,161)"/>
<path d="M0 0 C1.32 0 2.64 0 4 0 C3.34 1.32 2.68 2.64 2 4 C-0.64 4 -3.28 4 -6 4 C-6 3.67 -6 3.34 -6 3 C-4.02 2.67 -2.04 2.34 0 2 C0 1.34 0 0.68 0 0 Z " fill="#6F7B5A" transform="translate(278,120)"/>
<path d="M0 0 C0.66 0 1.32 0 2 0 C2.33 1.32 2.66 2.64 3 4 C3.66 4 4.32 4 5 4 C5 4.66 5 5.32 5 6 C3.35 6.33 1.7 6.66 0 7 C0 4.69 0 2.38 0 0 Z " fill="#4C5835" transform="translate(101,89)"/>
<path d="M0 0 C0.99 0 1.98 0 3 0 C3 0.66 3 1.32 3 2 C2.34 2 1.68 2 1 2 C0.67 3.32 0.34 4.64 0 6 C-0.99 5.67 -1.98 5.34 -3 5 C-3 4.01 -3 3.02 -3 2 C-2.01 2 -1.02 2 0 2 C0 1.34 0 0.68 0 0 Z " fill="#596442" transform="translate(50,93)"/>
<path d="M0 0 C0.33 0.99 0.66 1.98 1 3 C1.66 3 2.32 3 3 3 C2.67 3.99 2.34 4.98 2 6 C1.01 6 0.02 6 -1 6 C-1.66 4.68 -2.32 3.36 -3 2 C-2.01 2 -1.02 2 0 2 C0 1.34 0 0.68 0 0 Z " fill="#586541" transform="translate(163,83)"/>
<path d="M0 0 C0.66 0 1.32 0 2 0 C2 0.66 2 1.32 2 2 C2.99 2 3.98 2 5 2 C5 2.99 5 3.98 5 5 C5.66 5.33 6.32 5.66 7 6 C6.401875 5.835 5.80375 5.67 5.1875 5.5 C2.88655664 4.8885876 2.88655664 4.8885876 0 5 C0 3.35 0 1.7 0 0 Z " fill="#687256" transform="translate(68,70)"/>
<path d="M0 0 C0.99 0.33 1.98 0.66 3 1 C3.33 2.65 3.66 4.3 4 6 C2.68 6.33 1.36 6.66 0 7 C-0.33 6.34 -0.66 5.68 -1 5 C-0.34 5 0.32 5 1 5 C0.67 3.35 0.34 1.7 0 0 Z " fill="#5C6B46" transform="translate(193,66)"/>
<path d="M0 0 C1.32 0.66 2.64 1.32 4 2 C3.34 3.65 2.68 5.3 2 7 C0.68 6.34 -0.64 5.68 -2 5 C-1.34 4.67 -0.68 4.34 0 4 C0 2.68 0 1.36 0 0 Z " fill="#515B3B" transform="translate(200,57)"/>
<path d="M0 0 C2.31 0.66 4.62 1.32 7 2 C6.01 2.495 6.01 2.495 5 3 C5 3.66 5 4.32 5 5 C2.69 4.67 0.38 4.34 -2 4 C-2 3.34 -2 2.68 -2 2 C-1.34 2 -0.68 2 0 2 C0 1.34 0 0.68 0 0 Z " fill="#3F4E26" transform="translate(172,43)"/>
<path d="M0 0 C0.33 0.66 0.66 1.32 1 2 C1.99 2.33 2.98 2.66 4 3 C3.01 3.99 2.02 4.98 1 6 C0.01 5.67 -0.98 5.34 -2 5 C-1.34 3.35 -0.68 1.7 0 0 Z " fill="#5E6B46" transform="translate(95,158)"/>
<path d="M0 0 C0.33 0 0.66 0 1 0 C1 2.97 1 5.94 1 9 C-0.32 9.33 -1.64 9.66 -3 10 C-2.01 6.7 -1.02 3.4 0 0 Z " fill="#6F785A" transform="translate(286,132)"/>
<path d="M0 0 C1.32 1.65 2.64 3.3 4 5 C3.67 5.66 3.34 6.32 3 7 C2.01 6.67 1.02 6.34 0 6 C-0.75 4.0625 -0.75 4.0625 -1 2 C-0.67 1.34 -0.34 0.68 0 0 Z " fill="#4C5634" transform="translate(214,122)"/>
<path d="M0 0 C0.99 0 1.98 0 3 0 C3.33 1.65 3.66 3.3 4 5 C3.34 5 2.68 5 2 5 C1.67 4.67 1.34 4.34 1 4 C0.01 4.495 0.01 4.495 -1 5 C-0.67 3.35 -0.34 1.7 0 0 Z " fill="#576045" transform="translate(68,67)"/>
<path d="M0 0 C0.99 0.33 1.98 0.66 3 1 C2.34 3.31 1.68 5.62 1 8 C-0.32 6.68 -1.64 5.36 -3 4 C-2.34 4 -1.68 4 -1 4 C-0.67 2.68 -0.34 1.36 0 0 Z " fill="#46512E" transform="translate(202,49)"/>
<path d="M0 0 C2.97 0.495 2.97 0.495 6 1 C6 1.99 6 2.98 6 4 C4.68 4 3.36 4 2 4 C1.34 2.68 0.68 1.36 0 0 Z " fill="#49562E" transform="translate(223,51)"/>
<path d="M0 0 C1.67542976 0.28604898 3.34385343 0.61781233 5 1 C0.25 5 0.25 5 -2 5 C-1.125 1.125 -1.125 1.125 0 0 Z " fill="#4B5437" transform="translate(80,43)"/>
<path d="" fill="#99997F" transform="translate(0,0)"/>
</svg>
